<svg class="animated" id="freepik_stories-record-player" xmlns="http://www.w3.org/2000/svg" viewBox="0 0 500 500" version="1.1"><style>@keyframes fadeIn{0%{opacity:0}to{opacity:1}}@keyframes zoomOut{0%{opacity:0;transform:scale(1.5)}to{opacity:1;transform:scale(1)}}@keyframes lightSpeedRight{60%{transform:skewX(10deg);opacity:1}80%{transform:skewX(-2deg)}}@keyframes slideDown{0%{opacity:0;transform:translateY(-30px)}to{opacity:1;transform:translateY(0)}}@keyframes shake{10%,90%{transform:translate3d(-1px,0,0)}20%,80%{transform:translate3d(2px,0,0)}30%,50%,70%{transform:translate3d(-4px,0,0)}40%,60%{transform:translate3d(4px,0,0)}}@keyframes slideLeft{0%{opacity:0;transform:translateX(-30px)}to{opacity:1;transform:translateX(0)}}@keyframes lightSpeedLeft{60%{transform:skewX(-10deg);opacity:1}80%{transform:skewX(2deg)}}@keyframes wind{0%{transform:rotate(0deg)}25%{transform:rotate(1deg)}75%{transform:rotate(-1deg)}}@keyframes slideUp{0%{opacity:0;transform:translateY(30px)}to{opacity:1;transform:inherit}}@keyframes floating{0%,to{opacity:1;transform:translateY(0)}50%{transform:translateY(-10px)}}svg#freepik_stories-record-player:not(.animated) .animable{opacity:0}svg#freepik_stories-record-player.animated #freepik--record-player--inject-139{animation:1s 1 forwards cubic-bezier(.36,-.01,.5,1.38) lightSpeedLeft,6s Infinite linear wind;animation-delay:0s,1s}svg#freepik_stories-record-player.animated #freepik--speech-bubble--inject-139{animation:1s 1 forwards cubic-bezier(.36,-.01,.5,1.38) lightSpeedRight,6s Infinite linear floating;animation-delay:0s,1s}</style><g id="freepik--Pictures--inject-139" style="transform-origin:442.975px 102.475px 0;animation:1s 1 forwards cubic-bezier(.36,-.01,.5,1.38) zoomOut;animation-delay:0s" class="animable"><g id="freepik--Picture--inject-139" style="transform-origin:442.975px 66.37px 0" class="animable"><g id="freepik--Frame--inject-139" style="transform-origin:442.975px 66.37px 0" class="animable"><path style="fill:#fafafa;transform-origin:442.96px 88.875px 0" id="elqzxeu4q0d4h" class="animable" d="m465.38 100.6-2.08 1.24-42.76-24.68 2.08-1.25 42.76 24.69z"/><path style="fill:#fff;transform-origin:442.96px 66.36px 0" id="elvg53srq5yrg" class="animable" d="m422.62 75.91 40.68 23.48V56.8l-40.68-23.47v42.58z"/><path d="m416.61 79.42 50.62 29.23V54.53L416.61 25.3Zm3.93-47.31L463.3 56.8v45l-42.76-24.64Z" style="fill:#f0f0f0;transform-origin:441.92px 66.975px 0" id="eleszlw1bgb45" class="animable"/><path style="fill:#e0e0e0;transform-origin:421.58px 54.635px 0" id="eln0myamw2elq" class="animable" d="m420.54 77.16 2.08-1.25V33.33l-2.08-1.22v45.05z"/><path style="fill:#fafafa;transform-origin:442.975px 39.31px 0" id="el6dwjskn14h3" class="animable" d="m416.61 25.3 2.11-1.21 50.62 29.23-2.11 1.21-50.62-29.23z"/><path style="fill:#e0e0e0;transform-origin:468.285px 80.985px 0" id="elsprelai6v8d" class="animable" d="m469.34 53.32-2.11 1.21v54.12l2.11-1.21V53.32z"/></g><g id="freepik--Land--inject-139" style="transform-origin:442.96px 73.45px 0" class="animable"><path style="fill:#f0f0f0;transform-origin:442.96px 73.45px 0" id="el7x7xx731ipy" class="animable" d="m424.21 74.64 37.5 21.65V85.46l-9.38-21.65-5.84 5.42 2.1 9.07-12.95-27.69-11.43 13.2v10.83z"/><path d="M446.85 53.36a6.15 6.15 0 0 1 2.77 4.8c0 1.77-1.24 2.49-2.77 1.61a6.13 6.13 0 0 1-2.78-4.77c0-1.81 1.24-2.52 2.78-1.64Z" style="fill:#f0f0f0;transform-origin:446.845px 56.5645px 0" id="elur2o1lbh2x" class="animable"/></g></g><g id="freepik--picture--inject-139" style="transform-origin:442.975px 138.58px 0" class="animable"><g id="freepik--frame--inject-139" style="transform-origin:442.975px 138.58px 0" class="animable"><path style="fill:#fafafa;transform-origin:442.96px 161.085px 0" id="eljo0dgo0wal" class="animable" d="m465.38 172.81-2.08 1.24-42.76-24.69 2.08-1.24 42.76 24.69z"/><path style="fill:#fff;transform-origin:442.96px 138.57px 0" id="elp0e3eh77llc" class="animable" d="m422.62 148.12 40.68 23.48V129l-40.68-23.46v42.58z"/><path d="m416.61 151.63 50.62 29.23v-54.13l-50.62-29.22Zm3.93-47.31L463.3 129v45.05l-42.76-24.69Z" style="fill:#f0f0f0;transform-origin:441.92px 139.185px 0" id="elsygu0fh9uu" class="animable"/><path style="fill:#e0e0e0;transform-origin:421.58px 126.84px 0" id="elhlgra6bkxt" class="animable" d="m420.54 149.36 2.08-1.24v-42.58l-2.08-1.22v45.04z"/><path style="fill:#fafafa;transform-origin:442.975px 111.515px 0" id="elnqc58xz8sqd" class="animable" d="m416.61 97.51 2.11-1.21 50.62 29.22-2.11 1.21-50.62-29.22z"/><path style="fill:#e0e0e0;transform-origin:468.285px 153.19px 0" id="elsc1n32f7zc" class="animable" d="m469.34 125.52-2.11 1.21v54.13l2.11-1.21v-54.13z"/></g><g id="freepik--land--inject-139" style="transform-origin:442.96px 145.66px 0" class="animable"><path style="fill:#f0f0f0;transform-origin:442.96px 145.66px 0" id="elfjh3msh87hm" class="animable" d="m424.21 146.84 37.5 21.66v-10.83l-9.38-21.65-5.84 5.41 2.1 9.08-12.95-27.69-11.43 13.2v10.82z"/><path d="M446.85 125.57a6.12 6.12 0 0 1 2.77 4.8c0 1.77-1.24 2.49-2.77 1.6a6.1 6.1 0 0 1-2.78-4.8c0-1.77 1.24-2.49 2.78-1.6Z" style="fill:#f0f0f0;transform-origin:446.845px 128.77px 0" id="elzcz02rsparp" class="animable"/></g></g></g><g id="freepik--Shelf--inject-139" style="transform-origin:99.145px 87.35px 0;animation:1s 1 forwards cubic-bezier(.36,-.01,.5,1.38) lightSpeedRight;animation-delay:0s" class="animable"><g id="freepik--shelf--inject-139" style="transform-origin:99.145px 87.35px 0" class="animable"><path style="fill:#ebebeb;transform-origin:99.145px 104.87px 0" id="elej6sbygpcf" class="animable" d="m171.36 81.2-34.47-19.9-109.96 63.45v3.78l34.47 19.91 109.96-63.46V81.2z"/><path style="fill:#fafafa;transform-origin:99.145px 102.98px 0" id="elqooupfa1jbf" class="animable" d="M61.4 144.66 171.36 81.2l-34.47-19.9-109.96 63.45 34.47 19.91z"/><path style="fill:#e6e6e6;transform-origin:44.165px 136.595px 0" id="el7mtb0c149w5" class="animable" d="M61.4 144.66v3.78l-34.47-19.91v-3.78l34.47 19.91z"/><path style="fill:#e0e0e0;transform-origin:149.905px 54.49px 0" id="elnzy6ild8ll" class="animable" d="m138.73 26.77 22.35 12.92v42.52L138.73 69.3V26.77z"/><path d="M160.36 40.39 138.73 28a9.19 9.19 0 0 1-4.95 2.7L155.23 43s1.39-.28 5.13-2.61Z" style="fill:#fff;transform-origin:147.07px 35.5px 0" id="el01trc6uqzsx3" class="animable"/><path d="M153.15 43a4.62 4.62 0 0 0 4.16 0l3.69-2.12a1.26 1.26 0 0 0 0-2.39l-21.37-12.23-.9.51 21 12.11c.69.4.69 1 0 1.43l-3.39 1.92a2.73 2.73 0 0 1-2.49 0l-21-12.08-1 .58Z" style="fill:#fafafa;transform-origin:146.855px 34.8774px 0" id="el220csqgum94" class="animable"/><path d="M131.83 30.73v42.53l21.32 12.23a4.62 4.62 0 0 0 4.16 0L161 83.4a1.46 1.46 0 0 0 .86-1.19V39.68a1.46 1.46 0 0 1-.86 1.2L157.31 43a4.62 4.62 0 0 1-4.16 0Z" style="fill:#e0e0e0;transform-origin:146.845px 58.3574px 0" id="elu58yjc7uptc" class="animable"/><path d="M155.23 43.47a4.27 4.27 0 0 0 2.08-.5l3.69-2.09a1.46 1.46 0 0 0 .86-1.2v42.53a1.46 1.46 0 0 1-.86 1.19l-3.64 2.09a4.27 4.27 0 0 1-2.08.5Z" style="fill:#f0f0f0;transform-origin:158.545px 62.8353px 0" id="elrk5iye0v4hk" class="animable"/><path style="fill:#ebebeb;transform-origin:140.765px 59.74px 0" id="elwtg3jucpf2" class="animable" d="m129.59 32.02 22.35 12.91v42.53l-22.35-12.91V32.02z"/><path d="m151.22 45.64-21.63-12.42a9.14 9.14 0 0 1-5 2.71l21.45 12.36s1.44-.29 5.18-2.65Z" style="fill:#fff;transform-origin:137.905px 40.755px 0" id="ellyu4mmxwao8" class="animable"/><path d="M144 48.22a4.62 4.62 0 0 0 4.16 0l3.64-2.09a1.26 1.26 0 0 0 0-2.39L130.49 31.5l-.9.52 21 12.11a.75.75 0 0 1 0 1.43l-3.39 1.92a2.73 2.73 0 0 1-2.49 0l-21-12.09-1 .59Z" style="fill:#fafafa;transform-origin:137.685px 40.1074px 0" id="elqfx6iw9braf" class="animable"/><path d="M122.69 36v42.51L144 90.74a4.62 4.62 0 0 0 4.16 0l3.64-2.09a1.46 1.46 0 0 0 .86-1.19V44.93a1.43 1.43 0 0 1-.86 1.19l-3.64 2.1a4.62 4.62 0 0 1-4.16 0Z" style="fill:#e0e0e0;transform-origin:137.675px 63.6174px 0" id="elfiajed8eejd" class="animable"/><path d="M146.09 48.71a4.26 4.26 0 0 0 2.08-.49l3.64-2.1a1.43 1.43 0 0 0 .86-1.19v42.53a1.46 1.46 0 0 1-.86 1.19l-3.64 2.09a4.26 4.26 0 0 1-2.08.49Z" style="fill:#f0f0f0;transform-origin:149.38px 68.0805px 0" id="elyn1gm4mgha" class="animable"/><path style="fill:#ebebeb;transform-origin:122.03px 71.685px 0" id="elwsn4mg8joui" class="animable" d="m114.32 43.32 22.36 12.91-6.95 43.82-22.35-12.91 6.94-43.82z"/><path d="m135.79 56.85-21.64-12.43a11.85 11.85 0 0 1-5.76 2.24L129.84 59a28 28 0 0 0 5.95-2.15Z" style="fill:#fff;transform-origin:122.09px 51.71px 0" id="el4azqcbfosrk" class="animable"/><path d="M127.6 58.86a5.81 5.81 0 0 0 4.51.2l4.25-1.74c1.34-.55 1.5-1.53.35-2.18l-21.33-12.25-1.06.43 21 12.11c.69.4.6 1-.21 1.31l-4 1.6a3.5 3.5 0 0 1-2.7-.13l-21-12.08-1.19.48Z" style="fill:#fafafa;transform-origin:121.849px 51.1558px 0" id="elxbxep9k5u6q" class="animable"/><path d="m106.27 46.61-6.94 43.81 21.33 12.25a5.9 5.9 0 0 0 4.51.2l4.25-1.74c.67-.27 1-.65 1.11-1l6.94-43.81c-.06.4-.44.78-1.11 1l-4.25 1.74a5.81 5.81 0 0 1-4.51-.2Z" style="fill:#e0e0e0;transform-origin:118.4px 74.9171px 0" id="elq599lfevyi" class="animable"/><path d="M129.78 59.41a5.68 5.68 0 0 0 2.33-.35l4.25-1.74c.67-.27 1-.65 1.11-1l-6.94 43.81c-.07.4-.44.78-1.11 1l-4.25 1.74a5.68 5.68 0 0 1-2.33.35Z" style="fill:#f0f0f0;transform-origin:130.155px 79.7751px 0" id="ell35bw2fo1op" class="animable"/><g style="transform-origin:90.52px 93.19px 0" class="animable"><g style="transform-origin:90.52px 93.19px 0" class="animable"><path style="fill:#fafafa;transform-origin:92.635px 114.82px 0" id="eln4kwv5l2qv" class="animable" d="m77.18 122.91 1.58.76 29.33-16.93-1.58-.77-29.33 16.94z"/><path style="fill:#fff;transform-origin:90.53px 93.165px 0" id="el61e3pda3wdc" class="animable" d="m106.51 105.97-27.9 16.11-4.06-41.73 27.9-16.1 4.06 41.72z"/><path d="M106.29 58.91 71.57 79l4.78 49.21 34.73-20Zm1.8 47.83-29.33 16.93-4.21-43.32 29.33-16.94Z" style="fill:#f0f0f0;transform-origin:91.325px 93.56px 0" id="elsfyv2mbbuas" class="animable"/><path style="fill:#e0e0e0;transform-origin:105.27px 85.075px 0" id="el20aydgbgpcf" class="animable" d="m108.09 106.74-1.58-.77-4.06-41.72 1.43-.84 4.21 43.33z"/><path style="fill:#fafafa;transform-origin:88.125px 68.565px 0" id="elukfa6m6avxf" class="animable" d="m106.29 58.91-1.61-.74-34.72 20.04 1.61.75 34.72-20.05z"/><path style="fill:#e0e0e0;transform-origin:73.155px 103.19px 0" id="elgt7o12404gn" class="animable" d="m69.96 78.21 1.61.75 4.78 49.21-1.6-.74-4.79-49.22z"/></g><g style="transform-origin:92.08px 101.705px 0" class="animable"><path style="fill:#f0f0f0;transform-origin:92.08px 101.725px 0" id="elxkjvy2x54nj" class="animable" d="m105.28 105.18-25.72 14.85-.68-7.03 4.78-20.65 4.56 7.04-.94 5.94 7.6-21.91 9.72 14.73.68 7.03z"/><path d="M83.27 83.65a3.59 3.59 0 0 0-1.7 3.18c.11 1.15 1.05 1.59 2.1 1a3.62 3.62 0 0 0 1.7-3.18c-.11-1.17-1.05-1.6-2.1-1Z" style="fill:#f0f0f0;transform-origin:83.4697px 85.7359px 0" id="elchvyt0mhg6e" class="animable"/></g></g><g id="freepik--Pot--inject-139" style="transform-origin:54.1076px 112.794px 0" class="animable"><g id="freepik--Shadow--inject-139"><path d="M62.73 120c4.76 2.75 4.76 7.2 0 10s-12.47 2.74-17.23 0-4.76-7.2 0-10 12.5-2.74 17.23 0Z" style="opacity:.05;transform-origin:54.115px 125px 0" class="animable" id="elu0suygdfw3r"/></g><path d="M46.37 126.94c-4.14-4.23-6.58-14.79-2.54-18.14H64.4c4 3.35 1.61 13.9-2.53 18.13l-.12.12a.93.93 0 0 1-.14.14c-.12.11-.24.23-.37.33l-.1.08c-.1.08-.2.16-.32.24a6 6 0 0 1-.53.34 13.64 13.64 0 0 1-12.35 0c-.18-.1-.36-.22-.54-.34l-.29-.22-.12-.1c-.13-.11-.25-.21-.36-.32l-.17-.16Z" style="fill:#f5f5f5;transform-origin:54.1076px 119.229px 0" id="ela1l3ja2zpom" class="animable"/><path d="M62.61 107.19c4.7 2.71 4.7 7.1 0 9.81s-12.3 2.71-17 0-4.69-7.1 0-9.81 12.31-2.71 17 0Z" style="fill:#fff;transform-origin:54.1119px 112.095px 0" id="elwpiwet0a0ba" class="animable"/><path d="M59.29 109.11c2.85 1.65 2.85 4.32 0 6a11.42 11.42 0 0 1-10.34 0c-2.86-1.65-2.86-4.32 0-6a11.42 11.42 0 0 1 10.34 0Z" style="fill:#ebebeb;transform-origin:54.1163px 112.11px 0" id="ell5pj8rt6vis" class="animable"/><path d="M49 111.94a11.48 11.48 0 0 1 10.34 0 4.87 4.87 0 0 1 1.66 1.57 4.87 4.87 0 0 1-1.71 1.57 11.42 11.42 0 0 1-10.34 0 4.7 4.7 0 0 1-1.71-1.57 4.7 4.7 0 0 1 1.76-1.57Z" style="fill:#e0e0e0;transform-origin:54.12px 113.514px 0" id="elh7b5utk77ep" class="animable"/><path d="M58.66 113.51a23.66 23.66 0 0 0 3.74-5c1.72-3.05 2-7.14 1.15-7.65S59 104.47 59 104.47a21.83 21.83 0 0 0 .38-5.22c-.15-2.72-.81-5.19-1.59-5.69s-2.5 2.94-3.25 5.44-1.19 4.53-1.19 4.53A38.4 38.4 0 0 0 52 97.79c-.91-2.58-1.73-3.16-2.37-2.91s-1.06 1.46-1.24 4.9a34.43 34.43 0 0 0 .15 4.92s-1.28-1.41-2.7-2.78-2.23-1.7-2.68-1.42-.57 2.62 1.85 7a24.26 24.26 0 0 0 4.57 6s3.35 2.17 9.08.01Z" style="fill:#ebebeb;transform-origin:53.4579px 103.989px 0" id="elq37mayvp1oj" class="animable"/></g></g></g><g id="freepik--Shadows--inject-139" style="transform-origin:225.91px 337.925px 0;animation:1s 1 forwards cubic-bezier(.36,-.01,.5,1.38) slideDown,3s Infinite linear shake;animation-delay:0s,1s" class="animable"><ellipse id="freepik--shadow--inject-139" cx="348.2" cy="297.85" rx="70.17" ry="40.51" style="fill:#e0e0e0;transform-origin:348.2px 297.85px 0" class="animable"/><path style="fill:#e0e0e0;transform-origin:263.725px 249.49px 0" class="animable" d="m255.31 294.41-69.36-40.06 86.2-49.78 69.35 40.06-86.19 49.78z"/><path d="m138.19 420.87-8.57-4.95a5.25 5.25 0 0 0-4.73 0l-26.3 15.16c-1.31.75-1.31 2 0 2.73l2 1.17a25.81 25.81 0 0 1-4 2.81c-6.29 3.64-14.67 5.64-23.61 5.64s-17.32-2-23.61-5.64c-6.11-3.52-9.47-8.14-9.47-13s3.36-9.48 9.47-13a36.68 36.68 0 0 1 6-2.75l.14-.05 1.75 1A5.2 5.2 0 0 0 62 410l26.31-15.19c1.3-.75 1.3-2 0-2.73l-8.58-4.95a5.23 5.23 0 0 0-4.72 0L48.72 402.3c-1.3.75-1.3 2 0 2.73l1.32.76a41.67 41.67 0 0 0-4.78 2.36c-7.62 4.39-11.81 10.3-11.81 16.64s4.19 12.21 11.81 16.65c7.43 4.29 17.28 6.65 27.74 6.65s20.31-2.36 27.74-6.65a32.57 32.57 0 0 0 5-3.5l1.46.84a5.22 5.22 0 0 0 4.73 0l26.3-15.19c1.27-.74 1.27-1.96-.04-2.72Z" style="fill:#e0e0e0;transform-origin:86.3138px 417.329px 0" class="animable"/><path d="M271 348.69a1 1 0 0 0 0-1.75l-100.62-58.09a5 5 0 0 0-5 0l-111.17 64a1.12 1.12 0 0 0 0 1.94l101 58.31a3.9 3.9 0 0 0 3.92 0Z" style="fill:#e0e0e0;transform-origin:162.583px 350.904px 0" class="animable"/><path d="m167.52 419 90.57-52.28 11.16 6.45 4.16-6.52 42.32 8.88-1.4 2.23a5.06 5.06 0 0 0-.75 1.86 94.48 94.48 0 0 1 17.21 2 79.38 79.38 0 0 1 13.21 3.95 9.12 9.12 0 0 0 2.29-2.38l.68-1.08 45.78 9.57-37.24 59.18-9.38-2c-10.85 6.25-25.25 9.7-40.53 9.7a94.62 94.62 0 0 1-21.36-2.38l-26.15 15.1Z" style="fill:#e0e0e0;transform-origin:280.135px 418.965px 0" class="animable"/></g><g id="freepik--Box--inject-139" style="transform-origin:263.73px 223.28px 0;animation:1s 1 forwards cubic-bezier(.36,-.01,.5,1.38) slideLeft;animation-delay:0s" class="animable"><g id="freepik--box--inject-139" style="transform-origin:263.73px 223.28px 0" class="animable"><path style="fill:#06d6a0;transform-origin:224.105px 247.25px 0" id="el9csyr2rvnr" class="animable" d="M255.8 289.95v-48.8l-63.39-36.6v48.8l63.39 36.6z"/><g id="elxl91gxcyy2"><path style="fill:#fff;opacity:.45;transform-origin:224.105px 247.25px 0" class="animable" id="el8dn2kugqg1p" d="M255.8 289.95v-48.8l-63.39-36.6v48.8l63.39 36.6z"/></g><path style="fill:#06d6a0;transform-origin:295.42px 242.675px 0" id="elqlj5f5hhz0l" class="animable" d="m255.8 241.15 79.24-45.75v48.8l-79.24 45.75v-48.8z"/><g id="elfzdd65nwvhn"><path style="fill:#fff;opacity:.3;transform-origin:295.42px 242.675px 0" class="animable" id="elsz94ospl5f" d="m255.8 241.15 79.24-45.75v48.8l-79.24 45.75v-48.8z"/></g><path style="fill:#06d6a0;transform-origin:263.73px 198.88px 0" id="elxbgc6u0jox" class="animable" d="m255.8 241.15-65.26-37.7 81.11-46.84 65.27 37.7-81.12 46.84z"/><g id="el53lq2r2bg7b"><path style="fill:#fff;opacity:.6;transform-origin:263.73px 198.88px 0" class="animable" id="elvqb8laq5cw" d="m255.8 241.15-65.26-37.7 81.11-46.84 65.27 37.7-81.12 46.84z"/></g><path style="fill:#06d6a0;transform-origin:223.17px 228.4px 0" id="elwklxxwpaosf" class="animable" d="M255.8 241.15v12.2l-65.26-37.68v-12.22l65.26 37.7z"/><g id="elclmoyrikzu"><path style="fill:#fff;opacity:.45;transform-origin:223.17px 228.4px 0" class="animable" id="eln25l9slo8oo" d="M255.8 241.15v12.2l-65.26-37.68v-12.22l65.26 37.7z"/></g><g id="elywk0wqlsyqe"><path style="opacity:.2;transform-origin:224.105px 236.39px 0" class="animable" id="elsdqkw4bu4d" d="m255.8 253.35-63.39-36.6v2.69l63.39 36.59v-2.68z"/></g><path style="fill:#06d6a0;transform-origin:296.36px 223.83px 0" id="elj7nxkclba9q" class="animable" d="m336.92 194.31-81.12 46.84v12.2l81.12-46.83v-12.21z"/><g id="elqce07kaj27a"><path style="fill:#fff;opacity:.3;transform-origin:296.36px 223.83px 0" class="animable" id="el7dywnp3yo15" d="m336.92 194.31-81.12 46.84v12.2l81.12-46.83v-12.21z"/></g><g id="el0tjdd6qopzk"><path style="opacity:.2;transform-origin:295.42px 231.815px 0" class="animable" id="elhvzn8otp5aq" d="m255.8 253.35 79.24-45.75v2.69l-79.23 45.74-.01-2.68z"/></g><path d="m234.94 248.57-21.66-12.5c-.93-.54-1.69-.11-1.69 1v12.81a3.75 3.75 0 0 0 1.69 2.92l21.66 12.5c.93.54 1.69.1 1.69-1v-12.81a3.75 3.75 0 0 0-1.69-2.92Z" style="fill:#455a64;transform-origin:224.11px 250.684px 0" id="elmmtv90ac3s" class="animable"/><path d="m233.55 250-18.88-10.9c-.62-.36-1.13-.07-1.13.65v9.6a2.5 2.5 0 0 0 1.13 1.95l18.88 10.9c.62.36 1.13.07 1.13-.65V252a2.49 2.49 0 0 0-1.13-2Z" style="fill:#f5f5f5;transform-origin:224.11px 250.65px 0" id="elnz3vp521frl" class="animable"/><g id="el0wqm1bto2dm"><g style="opacity:.5;transform-origin:224.09px 250.672px 0" class="animable" id="elvcn4z6nzqy"><path d="M233 252.56a.27.27 0 0 0 .24-.14.29.29 0 0 0-.1-.38l-17.83-10.29a.27.27 0 0 0-.37.1.28.28 0 0 0 .1.38l17.82 10.29a.43.43 0 0 0 .14.04Z" style="fill:#455a64;transform-origin:224.088px 247.137px 0" id="el0op89fclzis" class="animable"/><path d="M233 254.91a.27.27 0 0 0 .24-.14.27.27 0 0 0-.1-.37l-17.83-10.29a.27.27 0 1 0-.27.47l17.82 10.29a.27.27 0 0 0 .14.04Z" style="fill:#455a64;transform-origin:224.09px 249.492px 0" id="el3fxfezx30ah" class="animable"/><path d="M233 257.27a.27.27 0 0 0 .24-.14.27.27 0 0 0-.1-.37l-17.83-10.29a.26.26 0 0 0-.37.1.27.27 0 0 0 .1.37l17.82 10.29a.27.27 0 0 0 .14.04Z" style="fill:#455a64;transform-origin:224.09px 251.85px 0" id="el3w67ajc8f0c" class="animable"/><path d="M233 259.63a.27.27 0 0 0 .24-.14.29.29 0 0 0-.1-.38l-17.83-10.29a.27.27 0 0 0-.37.1.28.28 0 0 0 .1.38l17.82 10.29a.43.43 0 0 0 .14.04Z" style="fill:#455a64;transform-origin:224.088px 254.207px 0" id="elgr31y2lw2dr" class="animable"/></g></g></g></g><g id="freepik--record-player--inject-139" style="transform-origin:151.945px 265.114px 0" class="animable"><g style="transform-origin:151.945px 265.114px 0" class="animable"><path style="fill:#06d6a0;transform-origin:156.76px 191.475px 0" id="elcsswshq2yrh" class="animable" d="m166.58 255.62-19.95-11.52V127.33h.63v116.41l19.63 11.33-.31.55z"/><g id="elvn82pgfc02t"><path style="fill:#06d6a0;transform-origin:91.79px 275.76px 0;transform:rotate(-30.01deg)" class="animable" id="elv1crecsk5al" d="M28.1 275.45h127.38v.62H28.1z"/></g><path d="M56.16 319.49v-117.2l.13-.07L167 138.3v117.2l-.13.07Zm.52-116.9v116l109.79-63.4v-116Z" style="fill:#06d6a0;transform-origin:111.58px 228.895px 0" id="eloyihgfz48h" class="animable"/><path d="m56.69 319.49-20.31-11.73V190.57l20.31 11.72Zm-19.79-12 19.26 11.13v-116l-19.27-11.15Z" style="fill:#06d6a0;transform-origin:46.535px 255.03px 0" id="elli07zabl45" class="animable"/><path d="m56.41 202.74-.13-.07L36.11 191l.39-.23L146.94 127l.14.08 20.17 11.65-.39.23ZM37.15 191l19.26 11.12 109.8-63.39-19.27-11.12Z" style="fill:#06d6a0;transform-origin:101.68px 164.87px 0" id="els4skpmyi8" class="animable"/><path d="M120 171.42c-2.22 3.92-4.51 7.79-6.76 11.68l-6.89 11.62c-4.6 7.73-9.3 15.4-13.95 23.1s-9.43 15.33-14.22 23l-7.21 11.41c-2.44 3.78-4.85 7.58-7.33 11.34 2.22-3.92 4.51-7.79 6.76-11.69l6.89-11.61c4.6-7.73 9.3-15.4 13.95-23.11s9.43-15.32 14.22-22.94l7.21-11.41c2.41-3.81 4.82-7.63 7.33-11.39Z" style="fill:#06d6a0;transform-origin:91.82px 217.495px 0" id="el57fu7o6juz4" class="animable"/><path d="M122 194c-1.21 2.27-2.5 4.5-3.74 6.75l-3.86 6.67c-2.58 4.45-5.25 8.85-7.92 13.24s-5.39 8.75-8.18 13.07l-4.19 6.48c-1.43 2.14-2.83 4.29-4.3 6.4 1.21-2.27 2.49-4.5 3.74-6.75l3.86-6.67c2.58-4.45 5.24-8.85 7.91-13.24s5.4-8.75 8.19-13.07l4.18-6.48c1.39-2.14 2.79-4.3 4.31-6.4Z" style="fill:#06d6a0;transform-origin:105.905px 220.305px 0" id="elruaclzx6af" class="animable"/><path d="M92.31 192.6c-1.21 2.28-2.49 4.5-3.74 6.75L84.71 206c-2.58 4.45-5.24 8.84-7.91 13.24s-5.4 8.75-8.19 13.07l-4.18 6.48c-1.44 2.13-2.84 4.29-4.31 6.4 1.21-2.27 2.49-4.5 3.74-6.75l3.86-6.68c2.58-4.45 5.25-8.84 7.92-13.23s5.39-8.75 8.18-13.07L88 199c1.44-2.13 2.84-4.28 4.31-6.4Z" style="fill:#06d6a0;transform-origin:76.215px 218.895px 0" id="elqnhh9bve9yb" class="animable"/><path d="M267.11 338.86a5.68 5.68 0 0 0-2.94-3.39 16.21 16.21 0 0 0-14.67 0 5.68 5.68 0 0 0-2.94 3.39c-.07.28-.45 3.43-.58 4.15a2.47 2.47 0 0 0 0 .44c0 1.61 1.06 3.22 3.19 4.45a17 17 0 0 0 15.41 0c2.13-1.23 3.2-2.84 3.2-4.45a2.58 2.58 0 0 0-.05-.44c-.17-.72-.55-3.87-.62-4.15Z" style="fill:#37474f;transform-origin:256.875px 341.731px 0" id="ela5os8tlbvnr" class="animable"/><path d="M249.5 343.94a16.21 16.21 0 0 0 14.67 0c2-1.17 3-2.7 3-4.24s-1-3.06-3-4.23a16.21 16.21 0 0 0-14.67 0c-2 1.17-3 2.7-3 4.23s.97 3.07 3 4.24Z" style="fill:#263238;transform-origin:256.835px 339.705px 0" id="elafve3n1sky" class="animable"/><path d="M174.46 392.35a5.79 5.79 0 0 0-2.94-3.4 16.26 16.26 0 0 0-14.68 0 5.69 5.69 0 0 0-2.93 3.39c-.07.28-.45 3.43-.58 4.15a2.58 2.58 0 0 0-.05.44c0 1.61 1.07 3.22 3.19 4.45a17 17 0 0 0 15.42 0c2.13-1.23 3.19-2.84 3.19-4.45a2.58 2.58 0 0 0-.05-.44c-.13-.71-.5-3.86-.57-4.14Z" style="fill:#37474f;transform-origin:164.18px 395.214px 0" id="eljhkz29s0f6n" class="animable"/><path d="M156.84 397.43a16.23 16.23 0 0 0 14.68 0c2-1.17 3-2.7 3-4.24s-1-3.07-3-4.24a16.26 16.26 0 0 0-14.68 0c-2 1.17-3 2.7-3 4.23s.98 3.08 3 4.25Z" style="fill:#263238;transform-origin:164.18px 393.192px 0" id="elx9jex03fnn" class="animable"/><path d="M173.85 285a5.68 5.68 0 0 0-2.94-3.39 16.21 16.21 0 0 0-14.67 0 5.68 5.68 0 0 0-2.94 3.39c-.07.28-.45 3.43-.58 4.15a2.68 2.68 0 0 0-.05.45c0 1.61 1.07 3.22 3.2 4.45a17.07 17.07 0 0 0 15.41 0c2.13-1.23 3.19-2.84 3.19-4.45a1.93 1.93 0 0 0-.05-.45c-.12-.7-.5-3.85-.57-4.15Z" style="fill:#37474f;transform-origin:163.57px 287.872px 0" id="elpwteuqvh1qk" class="animable"/><path d="M156.24 290.1a16.21 16.21 0 0 0 14.67 0c2-1.17 3-2.7 3-4.23s-1-3.07-3-4.24a16.21 16.21 0 0 0-14.67 0c-2 1.17-3 2.7-3 4.24s.97 3.06 3 4.23Z" style="fill:#263238;transform-origin:163.575px 285.865px 0" id="el16ld2tk582n" class="animable"/><path d="M81.2 338.51a5.75 5.75 0 0 0-2.94-3.39 16.23 16.23 0 0 0-14.68 0 5.75 5.75 0 0 0-2.94 3.39c-.06.28-.44 3.43-.57 4.15a2.69 2.69 0 0 0 0 .44c0 1.62 1.06 3.23 3.19 4.45a17 17 0 0 0 15.42 0c2.13-1.22 3.19-2.84 3.19-4.45a2.69 2.69 0 0 0 0-.44c-.23-.72-.61-3.87-.67-4.15Z" style="fill:#37474f;transform-origin:70.97px 341.382px 0" id="elpjolhsym25c" class="animable"/><path d="M63.58 343.59a16.23 16.23 0 0 0 14.68 0c2-1.17 3-2.7 3-4.23s-1-3.07-3-4.24a16.23 16.23 0 0 0-14.68 0c-2 1.17-3 2.7-3 4.24s.98 3.06 3 4.23Z" style="fill:#263238;transform-origin:70.92px 339.355px 0" id="elrzdnapbr8be" class="animable"/><path style="fill:#455a64;transform-origin:162.075px 316.345px 0" id="elss42ri9lb" class="animable" d="m157.4 377.34-100.97-58.3 110.32-63.69 100.97 58.3-110.32 63.69z"/><path style="fill:#263238;transform-origin:106.915px 359.615px 0" id="elo5tskd4hji" class="animable" d="M56.43 319.04v22.85l100.97 58.3v-22.85l-100.97-58.3z"/><path style="fill:#37474f;transform-origin:212.56px 356.92px 0" id="el82opsmlwj5l" class="animable" d="M267.72 313.65v22.85L157.4 400.19v-22.85l110.32-63.69z"/><path d="m227 345.43 10.32-6a.47.47 0 0 1 .43 0 .44.44 0 0 1 .21.38v5.37a.41.41 0 0 1-.21.36l-10.32 6.05a.42.42 0 0 1-.64-.37v-5.47a.42.42 0 0 1 .06-.21.43.43 0 0 1 .15-.11Zm10-.43v-4.39l-9.41 5.39v4.48Z" style="fill:#06d6a0;transform-origin:232.375px 345.515px 0" id="el4fiv5j3xhoj" class="animable"/><path d="m246.74 334 10.31-5.95a.42.42 0 0 1 .43 0 .44.44 0 0 1 .21.37v5.37a.44.44 0 0 1-.21.37l-10.31 6a.42.42 0 0 1-.43 0 .44.44 0 0 1-.21-.37v-5.47a.46.46 0 0 1 .05-.21.49.49 0 0 1 .16-.11Zm10.06-.45v-4.39l-9.46 5.46v4.47Z" style="fill:#06d6a0;transform-origin:252.11px 334.105px 0" id="elg35ihgj2q1j" class="animable"/><path d="M168.21 379.92 173 383l-2.55 4.43-5.06-2.53a1.38 1.38 0 0 1-.67-1.35 4.5 4.5 0 0 1 2.05-3.55 1.39 1.39 0 0 1 1.44-.08Z" style="fill:#06d6a0;transform-origin:168.855px 383.593px 0" id="elg4wehhokocn" class="animable"/><g id="el9yf2w67mq4a"><path d="M168.21 379.92 173 383l-2.55 4.43-5.06-2.53a1.38 1.38 0 0 1-.67-1.35 4.5 4.5 0 0 1 2.05-3.55 1.39 1.39 0 0 1 1.44-.08Z" style="opacity:.2;transform-origin:168.855px 383.593px 0" class="animable" id="elyysktip5erd"/></g><path d="M169.81 386.27c0 1.15.81 1.62 1.81 1a4 4 0 0 0 1.81-3.13c0-1.15-.81-1.62-1.81-1.05a4 4 0 0 0-1.81 3.18Z" style="fill:#06d6a0;transform-origin:171.62px 385.196px 0" id="el6j7f4hbr0n9" class="animable"/><path d="m176.84 374.92 4.74 3.13-2.58 4.42-5-2.53a1.38 1.38 0 0 1-.67-1.35 4.53 4.53 0 0 1 2-3.56 1.38 1.38 0 0 1 1.51-.11Z" style="fill:#06d6a0;transform-origin:177.45px 378.608px 0" id="eltuqzlfa6qf" class="animable"/><g id="el8qovr7o1e6d"><path d="m176.84 374.92 4.74 3.13-2.58 4.42-5-2.53a1.38 1.38 0 0 1-.67-1.35 4.53 4.53 0 0 1 2-3.56 1.38 1.38 0 0 1 1.51-.11Z" style="opacity:.2;transform-origin:177.45px 378.608px 0" class="animable" id="elihngf2bqb9p"/></g><path d="M178.44 381.27c0 1.15.81 1.62 1.81 1a4 4 0 0 0 1.81-3.13c0-1.16-.81-1.62-1.81-1.05a4 4 0 0 0-1.81 3.18Z" style="fill:#06d6a0;transform-origin:180.25px 380.195px 0" id="elejod2rkpixw" class="animable"/><path d="m185.47 369.91 4.74 3.13-2.55 4.43-5.06-2.53a1.39 1.39 0 0 1-.67-1.36 4.53 4.53 0 0 1 2-3.55 1.41 1.41 0 0 1 1.54-.12Z" style="fill:#06d6a0;transform-origin:186.065px 373.603px 0" id="elguf1g8lssra" class="animable"/><g id="elz6gb3ai7agb"><path d="m185.47 369.91 4.74 3.13-2.55 4.43-5.06-2.53a1.39 1.39 0 0 1-.67-1.36 4.53 4.53 0 0 1 2-3.55 1.41 1.41 0 0 1 1.54-.12Z" style="opacity:.2;transform-origin:186.065px 373.603px 0" class="animable" id="elio6ctgucdq"/></g><path d="M187.07 376.27c0 1.15.81 1.62 1.81 1a4 4 0 0 0 1.81-3.13c0-1.16-.81-1.63-1.81-1.05a4 4 0 0 0-1.81 3.18Z" style="fill:#06d6a0;transform-origin:188.88px 375.193px 0" id="elacqn5ojo9gb" class="animable"/><path d="m194.1 364.91 4.74 3.13-2.55 4.43-5.06-2.53a1.39 1.39 0 0 1-.67-1.36 4.53 4.53 0 0 1 2.05-3.55 1.41 1.41 0 0 1 1.49-.12Z" style="fill:#06d6a0;transform-origin:194.695px 368.611px 0" id="elpx7i6ukzsr" class="animable"/><g id="elsamrv03vvia"><path d="m194.1 364.91 4.74 3.13-2.55 4.43-5.06-2.53a1.39 1.39 0 0 1-.67-1.36 4.53 4.53 0 0 1 2.05-3.55 1.41 1.41 0 0 1 1.49-.12Z" style="opacity:.2;transform-origin:194.695px 368.611px 0" class="animable" id="ely97ohvlm93e"/></g><path d="M195.7 371.26c0 1.16.81 1.63 1.81 1.05a4 4 0 0 0 1.81-3.14c0-1.15-.81-1.62-1.81-1a4 4 0 0 0-1.81 3.09Z" style="fill:#06d6a0;transform-origin:197.51px 370.227px 0" id="eliuqoeke0ccm" class="animable"/><path d="m202.73 359.91 4.74 3.13-2.56 4.43-5.06-2.53a1.4 1.4 0 0 1-.67-1.36 4.53 4.53 0 0 1 2.05-3.55 1.39 1.39 0 0 1 1.5-.12Z" style="fill:#06d6a0;transform-origin:203.32px 363.608px 0" id="el768gqbxpt7" class="animable"/><g id="elrmf6eh9zojg"><path d="m202.73 359.91 4.74 3.13-2.56 4.43-5.06-2.53a1.4 1.4 0 0 1-.67-1.36 4.53 4.53 0 0 1 2.05-3.55 1.39 1.39 0 0 1 1.5-.12Z" style="opacity:.2;transform-origin:203.32px 363.608px 0" class="animable" id="el2d3v38z650y"/></g><path d="M204.33 366.26c0 1.16.81 1.62 1.81 1.05a4 4 0 0 0 1.81-3.14c0-1.15-.81-1.62-1.81-1a4 4 0 0 0-1.81 3.09Z" style="fill:#06d6a0;transform-origin:206.14px 365.225px 0" id="ellpbk5f9o45" class="animable"/><path d="M159.71 367.24c1.28-.74 1.28-1.93 0-2.67a5.08 5.08 0 0 0-4.62 0c-1.28.74-1.28 1.93 0 2.67a5.08 5.08 0 0 0 4.62 0Z" style="fill:#06d6a0;transform-origin:157.4px 365.905px 0" id="elx1op5gjdz5n" class="animable"/><path d="M78.53 320.37c1.28-.73 1.28-1.93 0-2.67a5.11 5.11 0 0 0-4.63 0c-1.27.74-1.27 1.94 0 2.67a5.11 5.11 0 0 0 4.63 0Z" style="fill:#06d6a0;transform-origin:76.2188px 319.035px 0" id="elx9srmrzeupn" class="animable"/><path style="fill:#263238;transform-origin:215.575px 302.145px 0" id="el32zddvnguzo" class="animable" d="m191.61 289.55 45.79 26.43 2.14-1.24-45.78-26.43-2.15 1.24z"/><path style="fill:#06d6a0;transform-origin:231.61px 310.695px 0" id="el1fqzuh1w7s8" class="animable" d="M228.34 313.65v-2.14l6.54-3.77v2.13l-6.54 3.78z"/><g id="el8477zaby3"><path style="opacity:.15;transform-origin:231.61px 310.695px 0" class="animable" id="elhzjtcrwcsib" d="M228.34 313.65v-2.14l6.54-3.77v2.13l-6.54 3.78z"/></g><path style="fill:#06d6a0;transform-origin:229.97px 308.68px 0" id="el64ysqmccro" class="animable" d="m225.06 309.63 3.28 1.88 6.54-3.77-3.27-1.89-6.55 3.78z"/><path style="fill:#06d6a0;transform-origin:226.7px 311.64px 0" id="elrfyk3g13yn" class="animable" d="m225.07 311.76 3.27 1.89v-2.14l-3.28-1.88.01 2.13z"/><g id="elc0la6s9q0aj"><path style="opacity:.3;transform-origin:226.7px 311.64px 0" class="animable" id="elzs2o9chc94p" d="m225.07 311.76 3.27 1.89v-2.14l-3.28-1.88.01 2.13z"/></g><path id="elvxl611qdkw" style="transform-origin:192.685px 289.55px 0" class="animable" d="M193.76 288.31v2.48l-2.15-1.24 2.15-1.24z"/><path style="fill:#263238;transform-origin:222.115px 298.365px 0" id="elcb6l4dkgp2s" class="animable" d="m198.15 285.77 45.79 26.43 2.14-1.23-45.78-26.44-2.15 1.24z"/><path style="fill:#06d6a0;transform-origin:225.07px 299.365px 0" id="elo614ixfw9k" class="animable" d="M221.8 302.32v-2.14l6.54-3.77v2.14l-6.54 3.77z"/><g id="elvexgjcd63oo"><path style="opacity:.15;transform-origin:225.07px 299.365px 0" class="animable" id="elfgpobx81qmc" d="M221.8 302.32v-2.14l6.54-3.77v2.14l-6.54 3.77z"/></g><path style="fill:#06d6a0;transform-origin:223.43px 297.35px 0" id="el2hg358fdm5h" class="animable" d="m218.52 298.3 3.28 1.88 6.54-3.77-3.27-1.89-6.55 3.78z"/><path style="fill:#06d6a0;transform-origin:220.16px 300.31px 0" id="elarf2pparxm" class="animable" d="m218.53 300.43 3.27 1.89v-2.14l-3.28-1.88.01 2.13z"/><g id="el8kzxb4asbn3"><path style="opacity:.3;transform-origin:220.16px 300.31px 0" class="animable" id="elckjj93tncud" d="m218.53 300.43 3.27 1.89v-2.14l-3.28-1.88.01 2.13z"/></g><path id="elvex42qg6qi" style="transform-origin:199.225px 285.77px 0" class="animable" d="M200.3 284.53v2.48l-2.15-1.24 2.15-1.24z"/><path d="M137.62 374a.43.43 0 0 0 .21-.8l-46.18-26.7a.42.42 0 0 0-.58.16.42.42 0 0 0 .15.58l46.18 26.66a.43.43 0 0 0 .22.1Z" style="fill:#06d6a0;transform-origin:114.526px 360.221px 0" id="eloukhc4le2x" class="animable"/><path d="M137.62 377.77a.43.43 0 0 0 .37-.21.44.44 0 0 0-.16-.58l-46.18-26.67a.44.44 0 0 0-.58.16.42.42 0 0 0 .15.58l46.18 26.67a.54.54 0 0 0 .22.05Z" style="fill:#06d6a0;transform-origin:114.525px 364.015px 0" id="elggj8g2an5lt" class="animable"/><path d="M137.62 381.59a.43.43 0 0 0 .21-.8l-46.18-26.66a.42.42 0 0 0-.58.15.43.43 0 0 0 .15.59l46.18 26.66a.43.43 0 0 0 .22.06Z" style="fill:#06d6a0;transform-origin:114.525px 367.83px 0" id="el3yw80n4lf8y" class="animable"/><path d="M113.09 347.67c22.66 13.08 59.41 13.08 82.08 0s22.67-34.31 0-47.4-59.42-13.08-82.09 0-22.66 34.31.01 47.4Z" style="fill:#06d6a0;transform-origin:154.128px 323.968px 0" id="el9cdv8okp4vo" class="animable"/><g id="elxj4r2vp64o"><g style="opacity:.15;transform-origin:187.39px 338.93px 0" class="animable" id="el3andcm0aav3"><path d="M185.79 328.42 171.36 336l4.64 19a71 71 0 0 0 18.47-7Z" style="fill:#fff;transform-origin:182.915px 341.71px 0" id="eldfpf6fm3y1n" class="animable"/><path d="m193.05 322.86-3.92 1.61 9.29 21.12a41 41 0 0 0 5-4Z" style="fill:#fff;transform-origin:196.275px 334.225px 0" id="elahl9xcv7xpr" class="animable"/></g></g><path d="M115.91 339.37c21.11 12.19 55.33 12.19 76.44 0s21.11-31.95 0-44.14-55.34-12.18-76.44 0-21.11 31.95 0 44.14Z" style="fill:#263238;transform-origin:154.132px 317.302px 0" id="elkryguxum3mn" class="animable"/><path d="M118.34 337.16c19.76 11 51.81 11 71.58 0s19.77-28.75 0-39.72-51.82-11-71.59 0-19.76 28.75.01 39.72Z" style="fill:#37474f;transform-origin:154.128px 317.306px 0" id="el6o3nvutcxvr" class="animable"/><path d="m111.33 332.27 42.8-15L107.32 328a27.92 27.92 0 0 0 4.01 4.27Z" style="fill:#263238;transform-origin:130.725px 324.77px 0" id="eldpy7jr6f0zn" class="animable"/><path d="m166.12 344.56-12-27.26 3.58 28c2.84-.12 5.65-.37 8.42-.74Z" style="fill:#263238;transform-origin:160.12px 331.3px 0" id="elufpieopafuk" class="animable"/><path d="m204.57 319.34-50.44-2 49.05 6.82a17 17 0 0 0 1.39-4.82Z" style="fill:#263238;transform-origin:179.35px 320.75px 0" id="elu4fpmsrlf4o" class="animable"/><path d="m173 291.23-18.87 26.07 26.46-23.91a69.93 69.93 0 0 0-7.59-2.16Z" style="fill:#263238;transform-origin:167.36px 304.265px 0" id="elnxkko796fy" class="animable"/><path d="M118.33 297.44c-1 .53-1.81 1.09-2.67 1.64l38.47 18.22-32.35-21.59c-1.18.55-2.34 1.12-3.45 1.73Z" style="fill:#263238;transform-origin:134.895px 306.505px 0" id="el89so9qczhas" class="animable"/><path d="M141.94 324.34c6.73 3.88 17.64 3.88 24.37 0s6.73-10.19 0-14.07-17.64-3.89-24.37 0-6.73 10.18 0 14.07Z" style="fill:#06d6a0;transform-origin:154.125px 317.303px 0" id="elqz9u60i0kz" class="animable"/><path d="M145.92 322c4.53 2.62 11.88 2.61 16.41 0s4.54-6.86 0-9.48-11.88-2.61-16.41 0-4.53 6.9 0 9.48Z" style="fill:#263238;transform-origin:154.127px 317.26px 0" id="el5uetmvz6tye" class="animable"/><path d="M150.71 319.28a7.56 7.56 0 0 0 6.84 0c1.89-1.09 1.89-2.86 0-4a7.56 7.56 0 0 0-6.84 0c-1.89 1.14-1.89 2.91 0 4Z" style="fill:#06d6a0;transform-origin:154.13px 317.28px 0" id="ell0tnwjn4yp" class="animable"/><path d="M154.19 281.92c6.95 4 18.23 4 25.18 0s7-10.52 0-14.54-18.23-4-25.18 0-6.96 10.53 0 14.54Z" style="fill:#06d6a0;transform-origin:166.788px 274.646px 0" id="el7jcim5oavg" class="animable"/><path d="M158.06 279.16c4.82 2.78 12.62 2.78 17.44 0s4.81-7.28 0-10.06-12.62-2.78-17.44 0-4.81 7.28 0 10.06Z" style="fill:#06d6a0;transform-origin:166.78px 274.13px 0" id="el86pu9v6eh8s" class="animable"/><g id="el6xg5zqjrqsu"><path d="m166.78 274-17.05 3.67a11.19 11.19 0 0 0 4.46 4.28 19.11 19.11 0 0 0 2.81 1.33Z" style="opacity:.1;transform-origin:158.255px 278.64px 0" class="animable" id="elemdoh7l0s"/></g><g id="ellfyqrhk1fcb"><path d="M166.78 264.37a25.68 25.68 0 0 0-12.59 3c-4.81 2.78-6.29 6.74-4.46 10.26l17.05-3.63Z" style="opacity:.2;transform-origin:157.876px 270.997px 0" class="animable" id="eloeq4p3v644d"/></g><g id="el77akus24vp8"><g style="opacity:.3;transform-origin:166.78px 274.131px 0" class="animable" id="elafhp0gnicc"><path d="M166.78 281.5a18.07 18.07 0 0 1-8.85-2.11c-2.41-1.39-3.74-3.26-3.74-5.26s1.33-3.86 3.74-5.26c4.88-2.82 12.82-2.81 17.7 0 2.41 1.4 3.74 3.26 3.74 5.26s-1.33 3.87-3.74 5.26a18.1 18.1 0 0 1-8.85 2.11Zm-8.59-2.56c4.74 2.73 12.44 2.73 17.18 0 2.24-1.3 3.48-3 3.48-4.81s-1.24-3.51-3.48-4.81c-4.74-2.73-12.44-2.73-17.18 0-2.24 1.3-3.48 3-3.48 4.81s1.24 3.51 3.48 4.81Z" id="elnz8zw2rd1yn" style="transform-origin:166.78px 274.131px 0" class="animable"/></g></g><path d="M170.09 257a3.28 3.28 0 0 0-6.49 0v3.23a3.28 3.28 0 0 0 6.49 0Z" style="fill:#06d6a0;transform-origin:166.845px 258.615px 0" id="elnhkhvqrmt6" class="animable"/><g id="el7mj1skc0wt"><path d="M170.09 260.27a3.28 3.28 0 1 1-3.25-2.81 3.06 3.06 0 0 1 3.25 2.81Z" style="opacity:.15;transform-origin:166.844px 260.737px 0" class="animable" id="elb0t0o4at3u"/></g><path d="M169.19 261.09a2.37 2.37 0 0 0-4.69 0v6.12a2.37 2.37 0 0 0 4.69 0Z" style="fill:#06d6a0;transform-origin:166.845px 264.15px 0" id="el3x558mbo9t2" class="animable"/><g id="eld9sxzokfgmp"><path d="M169.19 267.21a2.37 2.37 0 1 1-2.35-2 2.2 2.2 0 0 1 2.35 2Z" style="opacity:.15;transform-origin:166.849px 267.577px 0" class="animable" id="el6k6zcvnm4cd"/></g><path d="m161.77 273.3.59-7.39h8.86l.59 7.35a2.39 2.39 0 0 1-1.45 2.19 7.86 7.86 0 0 1-7.1 0 2.45 2.45 0 0 1-1.49-2.15Z" style="fill:#06d6a0;transform-origin:166.79px 271.104px 0" id="elvkmht787t1b" class="animable"/><g id="eleb7bhdr029s"><path d="m161.77 273.3.59-7.39h8.86l.59 7.35a2.39 2.39 0 0 1-1.45 2.19 7.86 7.86 0 0 1-7.1 0 2.45 2.45 0 0 1-1.49-2.15Z" style="opacity:.1;transform-origin:166.79px 271.104px 0" class="animable" id="el4ekexq6lbdu"/></g><path d="M169.92 267.83c1.73-1 1.73-2.62 0-3.62a7 7 0 0 0-6.28 0c-1.73 1-1.73 2.62 0 3.62a7 7 0 0 0 6.28 0Z" style="fill:#06d6a0;transform-origin:166.78px 266.02px 0" id="elell1cbd9ke" class="animable"/><g id="elurn5qrq5ejs"><path d="M169.92 267.83c1.73-1 1.73-2.62 0-3.62a7 7 0 0 0-6.28 0c-1.73 1-1.73 2.62 0 3.62a7 7 0 0 0 6.28 0Z" style="fill:#fff;opacity:.2;transform-origin:166.78px 266.02px 0" class="animable" id="elekzo48l0phm"/></g><path d="M169.19 272.86a2.37 2.37 0 0 0-4.69 0v3.05a2.37 2.37 0 0 0 4.69 0Z" style="fill:#06d6a0;transform-origin:166.845px 274.385px 0" id="elszi9r7kkynf" class="animable"/><g id="elcyj24xeh2a5"><path d="M169.19 275.91a2.37 2.37 0 1 1-2.35-2 2.21 2.21 0 0 1 2.35 2Z" style="opacity:.15;transform-origin:166.849px 276.277px 0" class="animable" id="el12nq2986mi7l"/></g><path d="m189.88 302.42-.28-.28c-1.44-1.44-5.42-5-9.62-8.75-2.53-2.26-5.07-4.52-7-6.26-4.68-4.27-4.68-5.83-4.68-10.48a1.5 1.5 0 0 0-3 0c0 5.35.22 7.72 5.64 12.66 1.92 1.75 4.47 4 7 6.29 4 3.56 8.11 7.25 9.5 8.63l.28.29c2.07 2.06 3.86 3.83 3.86 9.91v9.68h3v-9.68c.03-7.31-2.37-9.7-4.7-12.01Z" style="fill:#fafafa;transform-origin:179.94px 299.63px 0" id="elnm19ae4b02e" class="animable"/><path d="M195.49 319.55a2.36 2.36 0 0 0-4.68 0v7.11a2.36 2.36 0 0 0 4.68 0Z" style="fill:#06d6a0;transform-origin:193.15px 323.105px 0" id="el9cdaj05ftea" class="animable"/><g id="elrh0myemw2ca"><path d="M195.49 326.66a2.36 2.36 0 1 1-2.34-2 2.2 2.2 0 0 1 2.34 2Z" style="opacity:.15;transform-origin:193.158px 327.017px 0" class="animable" id="el31a55ytfuow"/></g></g></g><g id="freepik--Disks--inject-139" style="transform-origin:280.865px 413.87px 0;animation:1s 1 forwards cubic-bezier(.36,-.01,.5,1.38) slideUp,1.5s Infinite linear wind;animation-delay:0s,1s" class="animable"><g id="freepik--Discs--inject-139" style="transform-origin:280.865px 413.87px 0" class="animable"><ellipse cx="258.09" cy="415.21" rx="56.69" ry="32.73" style="fill:#455a64;transform-origin:258.09px 415.21px 0" id="elr9w1z99qhgp" class="animable"/><path d="m345 415.21-86.89 50.16-86.9-50.16 86.9-50.16 29 16.72c-7.29 4.2-7.29 11 0 15.23s19.09 4.2 26.37 0Z" style="fill:#37474f;transform-origin:258.105px 415.21px 0" id="el3mzy9yvrxfr" class="animable"/><ellipse cx="311.81" cy="407.81" rx="56.69" ry="32.73" style="fill:#455a64;transform-origin:311.81px 407.81px 0" id="elzdso6chkdhf" class="animable"/><path d="m390.52 386.56-41.9 66.69-115.52-24.19 41.9-66.69 38.48 8.07c-3.48 5.56 1.52 11.76 11.2 13.8s20.37-.87 23.89-6.45Z" style="fill:#06d6a0;transform-origin:311.81px 407.81px 0" id="eluj8yhj56h8r" class="animable"/><path d="M268.21 440.83c21.91 12.65 57.44 12.65 79.35 0s21.91-33.16 0-45.81-57.43-12.65-79.34 0-21.92 33.16-.01 45.81Z" style="fill:#37474f;transform-origin:307.888px 417.925px 0" id="elwyod3i96bq" class="animable"/><path d="M270.73 438.53c20.52 11.39 53.79 11.39 74.31 0s20.51-29.84 0-41.23-53.78-11.38-74.3 0-20.53 29.85-.01 41.23Z" style="fill:#455a64;transform-origin:307.886px 417.917px 0" id="elqgj0e3v92w" class="animable"/><path d="m263.46 433.46 44.42-15.54L259.29 429a29.11 29.11 0 0 0 4.17 4.46Z" style="fill:#37474f;transform-origin:283.585px 425.69px 0" id="elak3hm67l6h8" class="animable"/><path d="m320.33 446.21-12.45-28.29L311.6 447c2.93-.14 5.85-.4 8.73-.79Z" style="fill:#37474f;transform-origin:314.105px 432.46px 0" id="eltiq4nmcpio" class="animable"/><path d="m360.24 420-52.36-2.11L358.8 425a17.9 17.9 0 0 0 1.44-5Z" style="fill:#37474f;transform-origin:334.06px 421.445px 0" id="ellli0to66vs" class="animable"/><path d="m327.44 390.86-19.56 27.06 27.47-24.82a73 73 0 0 0-7.91-2.24Z" style="fill:#37474f;transform-origin:321.615px 404.39px 0" id="elplt2h4kuvmq" class="animable"/><path d="M270.73 397.3c-1 .55-1.89 1.13-2.78 1.71l39.93 18.91-33.58-22.41a62.55 62.55 0 0 0-3.57 1.79Z" style="fill:#37474f;transform-origin:287.915px 406.715px 0" id="elrux2h1ljis" class="animable"/><path d="M295.23 425.22c7 4 18.31 4 25.3 0s7-10.57 0-14.6-18.31-4-25.3 0-6.98 10.57 0 14.6Z" style="fill:#06d6a0;transform-origin:307.884px 417.914px 0" id="elegdzsuuxl7" class="animable"/><path d="M299.36 422.84c4.71 2.71 12.34 2.71 17 0s4.7-7.12 0-9.84-12.33-2.72-17 0-4.7 7.12 0 9.84Z" style="fill:#263238;transform-origin:307.858px 417.916px 0" id="elzhnaq6fhdf" class="animable"/><path d="M304.33 420a7.86 7.86 0 0 0 7.1 0c2-1.13 2-3 0-4.1a7.86 7.86 0 0 0-7.1 0c-1.96 1.1-1.96 2.94 0 4.1Z" style="fill:#06d6a0;transform-origin:307.895px 417.95px 0" id="elxgdvz8v6php" class="animable"/></g></g><g id="freepik--Headphones--inject-139" style="transform-origin:85.6651px 407.504px 0;animation:1s 1 forwards cubic-bezier(.36,-.01,.5,1.38) zoomOut,6s Infinite linear shake;animation-delay:0s,1s" class="animable"><g id="freepik--headphones--inject-139" style="transform-origin:85.6651px 407.504px 0" class="animable"><path d="m69.8 397.38.27.2.23.14a2.69 2.69 0 0 0 .29.16l.24.11.31.12.27.08.33.08.27.05H73.88l.29-.06.25-.05.46-.13.31-.1.17-.06.18-.07.45-.2.22-.09h.08c.25-.12.49-.25.74-.39a15.35 15.35 0 0 0 2.74-2.17 21.87 21.87 0 0 0 6.62-12.73 15 15 0 0 0 .11-1.61v-1.44a2.17 2.17 0 0 0 0-.25v-.52l-.06-.27a2.17 2.17 0 0 0-.07-.24l-.06-.24c0-.11-.07-.21-.11-.31s0-.1 0-.14l-.05-.12-2.15-1.08a9.33 9.33 0 0 1 .62 3.53c0 6-4.24 13.38-9.47 16.4a7.35 7.35 0 0 1-5.65 1.1l.13.14Z" style="fill:#263238;transform-origin:78.0018px 387.185px 0" id="elabllwndqt7s" class="animable"/><path d="M67.19 396.93a4.91 4.91 0 0 0 .75.54l1.91 1.11a5.71 5.71 0 0 1-2-2Z" style="fill:#37474f;transform-origin:68.52px 397.58px 0" id="eluiz2l3tk02a" class="animable"/><path d="M85.93 377.28v.14c0 .05.07.2.11.31l.06.24a.75.75 0 0 1 0 .16v.08l.06.27v.52a2.17 2.17 0 0 1 0 .25v1.44a13.89 13.89 0 0 1-.1 1.55 18.6 18.6 0 0 1-1 4.32 22.28 22.28 0 0 1-1.34 3.44 21.36 21.36 0 0 1-3.88 5 .46.46 0 0 0-.07.07 15.77 15.77 0 0 1-2.74 2l-.68.36-.1.05h-.07c-.19.1-.39.18-.58.26h-.12l-.19.07-.29.19-.29.1-.31.07h-.11l-.25.06-.31.05h-1.87l-.23-.05h-.07l-.28-.07-.12-.05-.31-.12-.24-.11a2.69 2.69 0 0 1-.29-.16l-.23-.14-.27-.2-.21-.16-.14-.14-.11-.11-.18-.19c-.08-.09-.15-.19-.23-.29s-.11-.14-.15-.21a1.32 1.32 0 0 1-.12-.2l-.82.48a5.71 5.71 0 0 0 2 2l.37.19h.06a5.77 5.77 0 0 0 1.15.39h.13l.38.06H73.96l.5-.09.25-.06.43-.12.21-.07c.21-.07.42-.14.63-.23l.16-.06.53-.24.19-.09c.22-.11.45-.23.67-.36a17.11 17.11 0 0 0 3.87-3.14 22.45 22.45 0 0 0 1.69-2c.26-.36.52-.73.76-1.11a23 23 0 0 0 1.92-3.55 18.7 18.7 0 0 0 1.7-7.39 11.31 11.31 0 0 0-.33-2.82l-1.23-.71Z" style="fill:#455a64;transform-origin:77.6652px 388.18px 0" id="elghgknd4lulh" class="animable"/><path d="M72.83 373.71c-4.78 2.75-8.64 9.45-8.64 15 0 2.76 1 4.7 2.54 5.6l4.14 2.39c1.57.92 3.73.79 6.13-.59 4.77-2.76 8.64-9.46 8.64-15 0-2.76-1-4.7-2.54-5.6l-4.17-2.41c-1.56-.9-3.72-.77-6.1.61Z" style="fill:#06d6a0;transform-origin:74.915px 384.908px 0" id="eliwdszu9p1p" class="animable"/><g id="eladkutngc5nd"><path d="M72.83 373.71c-4.78 2.75-8.64 9.45-8.64 15 0 2.76 1 4.7 2.54 5.6l4.14 2.39c1.57.92 3.73.79 6.13-.59 4.77-2.76 8.64-9.46 8.64-15 0-2.76-1-4.7-2.54-5.6l-4.17-2.41c-1.56-.9-3.72-.77-6.1.61Z" style="opacity:.3;transform-origin:74.915px 384.908px 0" class="animable" id="elbj3rtvd40js"/></g><path d="M68.36 391.09c0-5.51 3.86-12.21 8.64-15s8.64-.52 8.64 5-3.87 12.21-8.64 15-8.64.51-8.64-5Z" style="fill:#06d6a0;transform-origin:77px 386.089px 0" id="elfk4fan1rm1" class="animable"/><path d="M85.74 376.83c-.06-.13-.13-.26-.2-.38v-.06a4.65 4.65 0 0 0-.34-.52 6.52 6.52 0 0 0-.34-.4l-.15-.16a4 4 0 0 0-.31-.27l-.25-.19-.15-.15a4.73 4.73 0 0 0-1.27-.58 5.69 5.69 0 0 1 1.27 1.93l1.92 1.11Z" style="fill:#263238;transform-origin:84.325px 375.64px 0" id="el07slxb1zvztw" class="animable"/><path d="M65.78 389.89a3.07 3.07 0 0 0 1.22-1.75c1.22-5.46 5-11.14 9.54-13.74 3.28-1.89 6.41-1.87 8.48-.06a4.08 4.08 0 0 0-.85-.61l-1.91-1.11c-2-1.17-4.78-1-7.64.67-4.51 2.6-8.32 8.28-9.54 13.74a3 3 0 0 1-1.24 1.75l-6.64 3.83 1.92 1.11Z" style="fill:#37474f;transform-origin:71.11px 382.793px 0" id="elt7vzn2vixah" class="animable"/><path d="M67 388.14a3.07 3.07 0 0 1-1.24 1.75l-6.64 3.83v1.09l.94-.54 6.57-3.79a2.47 2.47 0 0 0 .27-.21l.07-.06a3.07 3.07 0 0 0 .25-.26 4.07 4.07 0 0 0 .33-.48l.06-.12a3.89 3.89 0 0 0 .16-.38c0-.09 0-.17.07-.25 0-.3.12-.59.2-.89l.06-.24c.07-.26.14-.52.22-.78a.56.56 0 0 0 0-.12c.09-.29.19-.59.3-.88l.09-.23c.09-.24.19-.49.29-.73l.07-.18c.13-.28.26-.57.4-.86l.1-.2c.11-.23.23-.47.36-.7l.1-.2c.16-.28.31-.55.48-.82 0-.06.07-.11.1-.16.14-.23.28-.46.43-.68l.14-.2c.18-.27.36-.52.55-.78a.86.86 0 0 0 .07-.1l.52-.66c.05-.06.1-.13.16-.19.2-.24.4-.48.62-.71s.42-.46.64-.67a1.85 1.85 0 0 1 .14-.14c.22-.21.44-.42.66-.61l.11-.1c.2-.18.41-.35.62-.51l.12-.09c.22-.18.46-.35.69-.51l.16-.1c.24-.16.48-.32.73-.46a8.6 8.6 0 0 1 4.1-1.29 5.36 5.36 0 0 1 .81 0c.13 0 .26 0 .38.06l.37.09a4.53 4.53 0 0 1 1.26.58l.13.09.25.19.29.25.15.16.09.1a2.48 2.48 0 0 1 .25.3 4.65 4.65 0 0 1 .34.52.59.59 0 0 1 0 .08 2.85 2.85 0 0 1 .16.3c.05.11.1.22.14.33l1.23.71a7.81 7.81 0 0 0-.79-2l-.15-.25-.21-.31-.13-.17c-.09-.11-.17-.22-.26-.32a.93.93 0 0 0-.14-.14l-.05-.06-.27-.26-.07-.06c-2.07-1.81-5.2-1.83-8.48.06-4.32 2.82-8.13 8.5-9.37 13.96Z" style="fill:#455a64;transform-origin:73.02px 383.786px 0" id="eldkmpqciutw4" class="animable"/><path d="M67.58 393.84h-.06l-1.92-1.1a.82.82 0 0 0-.84 0l-7.5 4.34 1.92 1.1 7.51-4.33a.79.79 0 0 1 .89-.01Z" style="fill:#37474f;transform-origin:62.42px 395.402px 0" id="el5o10bxdgfnh" class="animable"/><path d="M67.73 396.4a7.93 7.93 0 0 1-.57-1.25.37.37 0 0 0-.55-.22l-.75.44a6 6 0 0 0 1.33 1.56l.65-.37Z" style="fill:#37474f;transform-origin:66.85px 395.903px 0" id="el5oguwp6m4mu" class="animable"/><path d="M68.44 395.72c-.11-.2-.2-.41-.29-.62s-.15-.43-.22-.65a1 1 0 0 0-.08-.21l-.09-.16-.12-.12a.79.79 0 0 0-.93 0l-7.51 4.33v1.1l.95-.55 5.78-3.33.75-.44a.37.37 0 0 1 .55.22 7.93 7.93 0 0 0 .57 1.25l.11.16.82-.48c0-.05-.07-.11-.11-.17a1.18 1.18 0 0 1-.18-.33Z" style="fill:#455a64;transform-origin:63.965px 396.599px 0" id="elfxao8xydsi9" class="animable"/><path d="M77.81 371.86C70.75 375.93 65 385.83 65 394c0 4.06 1.43 6.92 3.73 8.25l3.86 2.23c2.31 1.33 5.49 1.14 9-.89 7-4.07 12.76-14 12.76-22.12 0-4.06-1.42-6.92-3.73-8.25L86.83 371c-2.31-1.37-5.5-1.18-9.02.86Z" style="fill:#06d6a0;transform-origin:79.675px 387.724px 0" id="el2sjsde29jrn" class="animable"/><g id="elubg35czbfis"><path d="M68.88 396.19c0-8.15 5.71-18.05 12.77-22.12s12.76-.77 12.76 7.37-5.71 18.05-12.76 22.12-12.77.77-12.77-7.37Z" style="opacity:.1;transform-origin:81.645px 388.815px 0" class="animable" id="el46j8kv0jvtp"/></g><path d="M81.64 374.07c-7 4.07-12.76 14-12.76 22.11 0 4.07 1.43 6.93 3.74 8.27.32.18 1.6.91 1.91 1.1 2.31 1.34 5.51 1.15 9-.89 7.06-4.07 12.77-14 12.77-22.11 0-4.07-1.43-6.93-3.74-8.27l-1.92-1.1c-2.28-1.34-5.47-1.18-9 .89Z" style="fill:#f0f0f0;transform-origin:82.59px 389.36px 0" id="elq627xpq8ark" class="animable"/><path d="M70.8 397.29c0-8.14 5.71-18 12.76-22.11s12.77-.77 12.77 7.37-5.71 18-12.77 22.11-12.76.77-12.76-7.37Z" style="fill:#e0e0e0;transform-origin:83.565px 389.92px 0" id="elmwzdntihax" class="animable"/><path d="M83.1 374.36c-7.3 4.22-13.24 14.5-13.24 22.93a12.51 12.51 0 0 0 1.46 6.29 7.57 7.57 0 0 0 2.76 2.8c.64.36 3.2 1.86 3.86 2.23 2.64 1.51 6.22 1.24 9.94-.91 7.3-4.21 13.24-14.5 13.24-22.93a12.36 12.36 0 0 0-1.47-6.28 7.43 7.43 0 0 0-2.77-2.82l-3.81-2.2c-2.65-1.47-6.23-1.27-9.97.89Z" style="fill:#455a64;transform-origin:85.4902px 391.043px 0" id="eleabiwk12f7s" class="animable"/><path d="M99.65 378.49a12.36 12.36 0 0 1 1.47 6.28c0 8.43-5.94 18.72-13.24 22.93-5.29 3.06-10.28 2.31-12.72-1.91a12.47 12.47 0 0 1-1.46-6.28c0-8.43 5.94-18.72 13.24-22.93 5.29-3.06 10.28-2.31 12.71 1.91Z" style="fill:#37474f;transform-origin:87.4102px 392.14px 0" id="elfvgwvaae2kp" class="animable"/><path d="M93.52 385.32a6.18 6.18 0 0 1 .74 3.14 14.64 14.64 0 0 1-6.61 11.45c-2.65 1.53-5.14 1.15-6.36-1a6.29 6.29 0 0 1-.73-3.14 14.64 14.64 0 0 1 6.61-11.45c2.65-1.48 5.14-1.1 6.35 1Z" style="fill:#263238;transform-origin:87.4102px 392.133px 0" id="ell5okhhj71k" class="animable"/><path d="M114.08 392.26c-7.3 4.21-13.24 14.5-13.24 22.93a12.39 12.39 0 0 0 1.47 6.28 7.4 7.4 0 0 0 2.75 2.8l3.86 2.24c2.64 1.5 6.22 1.24 9.94-.92 7.3-4.21 13.24-14.5 13.24-22.93a12.39 12.39 0 0 0-1.47-6.28 7.27 7.27 0 0 0-2.77-2.81c-.64-.36-3.17-1.84-3.81-2.21-2.65-1.52-6.23-1.26-9.97.9Z" style="fill:#455a64;transform-origin:116.47px 408.927px 0" id="elu21cd1e3jg" class="animable"/><path d="M130.63 396.38a12.39 12.39 0 0 1 1.47 6.28c0 8.43-5.94 18.72-13.24 22.93-5.29 3.06-10.28 2.31-12.71-1.9a12.4 12.4 0 0 1-1.47-6.29c0-8.43 5.94-18.71 13.24-22.93 5.29-3.05 10.28-2.3 12.71 1.91Z" style="fill:#37474f;transform-origin:118.39px 410.034px 0" id="elaoyt1vezqsb" class="animable"/><path d="M118.39 395.29c-7 4.07-12.77 14-12.77 22.11 0 4.08 1.43 6.94 3.75 8.27l1.91 1.1c2.31 1.34 5.5 1.15 9-.89 7-4.07 12.77-14 12.77-22.11 0-4.07-1.43-6.93-3.75-8.26l-1.92-1.11c-2.28-1.33-5.47-1.14-8.99.89Z" style="fill:#f0f0f0;transform-origin:119.335px 410.589px 0" id="eljg78q6bm4me" class="animable"/><g id="elx6wgwgru297"><ellipse cx="120.31" cy="411.14" rx="18.05" ry="10.42" style="fill:#e0e0e0;transform-origin:120.31px 411.14px 0;transform:rotate(-60deg)" class="animable" id="el7x9z19tps86"/></g><path d="M120.31 396.4c-7 4.07-12.77 14-12.77 22.11 0 4.07 1.43 6.92 3.74 8.26l3.85 2.23c2.31 1.33 5.5 1.13 9-.9 7-4.07 12.77-14 12.77-22.11 0-4.07-1.43-6.92-3.74-8.26l-3.85-2.22c-2.31-1.33-5.48-1.14-9 .89Z" style="fill:#06d6a0;transform-origin:122.22px 412.253px 0" id="el8ilnz0ex318" class="animable"/><g id="elg58ektujr4r"><path d="M111.38 420.73c0-8.14 5.72-18 12.77-22.11s12.77-.77 12.77 7.37-5.72 18-12.77 22.11-12.77.77-12.77-7.37Z" style="opacity:.1;transform-origin:124.15px 413.36px 0" class="animable" id="eluf0pwokuwac"/></g><path d="m120 426.36.27.2.23.14a2.69 2.69 0 0 0 .29.16l.25.11.3.12.27.08.33.08.28.05H124.06l.29-.06.25-.05.46-.13.31-.1.17-.06.18-.07.46-.2.21-.09h.08c.25-.12.49-.25.74-.39A15.41 15.41 0 0 0 130 424a21.89 21.89 0 0 0 6.61-12.73 12.81 12.81 0 0 0 .11-1.61 1.55 1.55 0 0 0 0-.22v-.37a2.45 2.45 0 0 1 0-.27v-.83c0-.1 0-.2-.05-.29s0-.15 0-.23l-.06-.28-.06-.23a2.17 2.17 0 0 1-.07-.24c0-.11-.07-.21-.11-.31s0-.1 0-.14a.61.61 0 0 0-.05-.12l-2.18-1.13a9.29 9.29 0 0 1 .62 3.53c0 6-4.24 13.38-9.47 16.4a7.4 7.4 0 0 1-5.65 1.1l.14.13Z" style="fill:#263238;transform-origin:128.182px 416.15px 0" id="el7w98rr0ho7u" class="animable"/><path d="M117.37 425.91a5.46 5.46 0 0 0 .75.54l1.91 1.1a5.79 5.79 0 0 1-2-2Z" style="fill:#37474f;transform-origin:118.7px 426.55px 0" id="elmj4cfma22dr" class="animable"/><path d="M136.11 406.26v.14c0 .05.07.2.11.31a2.17 2.17 0 0 0 .07.24v.23l.06.28v.23a2.93 2.93 0 0 0 .05.29V408.81a2.45 2.45 0 0 0 0 .27v.37a1.48 1.48 0 0 1 0 .21 13.91 13.91 0 0 1-.1 1.56 18.6 18.6 0 0 1-1 4.32 23.18 23.18 0 0 1-1.63 3.46 22.14 22.14 0 0 1-3.67 5 15.77 15.77 0 0 1-2.74 2.05c-.23.13-.45.25-.68.36l-.1.05h-.07c-.19.09-.38.18-.57.25l-.13.05-.18.07-.27.09c-.1 0-.19.07-.29.09a1.57 1.57 0 0 1-.31.08h-.11l-.25.06-.31.05h-2.29l-.27-.07-.12-.05-.31-.08-.25-.11a2.69 2.69 0 0 1-.29-.16l-.23-.14-.27-.2-.2-.17-.15-.13-.1-.11-.19-.19c-.08-.09-.15-.19-.23-.3l-.15-.2a1.32 1.32 0 0 1-.12-.2l-.82.48a5.79 5.79 0 0 0 2 2l.37.19h.06a5.77 5.77 0 0 0 1.15.39h.14l.37.06H124.07l.51-.1.24-.05.43-.12.21-.07c.21-.07.42-.14.63-.23l.16-.06.53-.24.19-.09c.22-.12.45-.23.67-.36a17.11 17.11 0 0 0 3.87-3.14 23.92 23.92 0 0 0 1.69-2c.26-.36.52-.73.76-1.11a23.42 23.42 0 0 0 1.92-3.55 18.9 18.9 0 0 0 1.71-7.39 11.23 11.23 0 0 0-.34-2.82l-1.23-.71a.61.61 0 0 1 .09.09Z" style="fill:#455a64;transform-origin:127.795px 417.19px 0" id="eltwk10m5u0fs" class="animable"/><path d="M124.15 403.38c-4.77 2.76-8.64 9.46-8.64 15 0 2.76 1 4.7 2.54 5.6l4.15 2.4c1.56.91 3.73.78 6.12-.6 4.77-2.75 8.64-9.45 8.64-15 0-2.76-1-4.7-2.54-5.6-.48-.28-3.68-2.14-4.17-2.41-1.56-.89-3.72-.77-6.1.61Z" style="fill:#06d6a0;transform-origin:126.235px 414.581px 0" id="elakl944c2nzg" class="animable"/><g id="el25m8t6vfwdc"><path d="M124.15 403.38c-4.77 2.76-8.64 9.46-8.64 15 0 2.76 1 4.7 2.54 5.6l4.15 2.4c1.56.91 3.73.78 6.12-.6 4.77-2.75 8.64-9.45 8.64-15 0-2.76-1-4.7-2.54-5.6-.48-.28-3.68-2.14-4.17-2.41-1.56-.89-3.72-.77-6.1.61Z" style="opacity:.3;transform-origin:126.235px 414.581px 0" class="animable" id="eloyt8w04w4hg"/></g><g id="elwnq2sn86wl"><ellipse cx="128.32" cy="415.77" rx="12.22" ry="7.05" style="fill:#06d6a0;transform-origin:128.32px 415.77px 0;transform:rotate(-60deg)" class="animable" id="elfeob6j5a9r"/></g><path d="M122 419.83a14.83 14.83 0 0 1 6.7-11.61c3.71-2.14 6.71-.41 6.71 3.87a14.78 14.78 0 0 1-6.71 11.61c-3.7 2.14-6.7.41-6.7-3.87Z" style="fill:#263238;transform-origin:128.705px 415.96px 0" id="el4h3n7l2a4hk" class="animable"/><path d="m123.55 414.68 5.42 1.45-4.74 8.21c-1.22-.7-2-2.2-2-4.33a13.18 13.18 0 0 1 1.32-5.33Z" style="fill:#455a64;transform-origin:125.6px 419.51px 0" id="el6fp5m0cgahj" class="animable"/><path d="M129 408.39c1.85-1.07 3.53-1.17 4.74-.47l-4.74 8.21-5.42-1.45a14.37 14.37 0 0 1 5.42-6.29Z" style="fill:#37474f;transform-origin:128.66px 411.802px 0" id="elfgnlgqjqa3c" class="animable"/><path d="M133.71 407.92c1.21.7 2 2.2 2 4.34a13 13 0 0 1-1.3 5.32l-5.41-1.45Z" style="fill:#455a64;transform-origin:132.355px 412.75px 0" id="elgn4rg5jvlbn" class="animable"/><path d="m129 416.13 5.41 1.45a14.3 14.3 0 0 1-5.41 6.29c-1.85 1.07-3.53 1.17-4.74.47Z" style="fill:#37474f;transform-origin:129.335px 420.458px 0" id="elx6ozx6120u" class="animable"/><path d="M135.92 405.81c-.06-.13-.13-.26-.2-.38v-.06a3.89 3.89 0 0 0-.34-.52 6.52 6.52 0 0 0-.34-.4l-.15-.16a2.61 2.61 0 0 0-.31-.27l-.25-.19-.12-.09a4.73 4.73 0 0 0-1.27-.58 5.33 5.33 0 0 1 1.27 1.93l1.92 1.11c-.13-.2-.13-.28-.21-.39Z" style="fill:#263238;transform-origin:134.535px 404.68px 0" id="el3hapfjkagad" class="animable"/><path d="M116 418.87a3.07 3.07 0 0 0 1.24-1.75c1.22-5.46 5-11.14 9.54-13.74 3.28-1.89 6.41-1.87 8.49-.06a4.77 4.77 0 0 0-.85-.61l-1.92-1.11c-2-1.17-4.78-1-7.64.67-4.51 2.6-8.32 8.28-9.54 13.74a3.07 3.07 0 0 1-1.24 1.75l-6.64 3.83 1.92 1.11Z" style="fill:#37474f;transform-origin:121.355px 411.773px 0" id="el5lgof1nalqx" class="animable"/><path d="M117.2 417.12a3.07 3.07 0 0 1-1.24 1.75l-6.64 3.83v1.09l.94-.55 6.57-3.78.27-.21.07-.06a3.07 3.07 0 0 0 .25-.26 3.14 3.14 0 0 0 .33-.48l.06-.13a3 3 0 0 0 .19-.32c0-.09 0-.17.07-.25.06-.3.12-.6.2-.89l.06-.24c.07-.26.14-.52.22-.78a.56.56 0 0 0 0-.12c.09-.3.2-.59.3-.88l.09-.23c.09-.25.19-.49.29-.73a1.34 1.34 0 0 0 .07-.18c.13-.29.26-.57.4-.86l.1-.2c.11-.24.23-.47.36-.7l.1-.2.48-.82c0-.06.07-.11.1-.16.14-.23.28-.46.43-.68 0-.07.09-.14.14-.2.18-.27.36-.53.55-.78a.86.86 0 0 0 .07-.1l.52-.66.16-.19c.2-.24.41-.48.62-.71s.42-.46.64-.67l.14-.14c.22-.21.44-.42.66-.61l.11-.1c.21-.18.41-.35.62-.51l.12-.09.69-.51.16-.1c.24-.16.48-.32.73-.46a8.6 8.6 0 0 1 4.11-1.29 4.25 4.25 0 0 1 .8 0 2.32 2.32 0 0 1 .38.06 2.22 2.22 0 0 1 .37.09 4.73 4.73 0 0 1 1.27.58l.12.09.25.19a3.47 3.47 0 0 1 .29.25l.15.16.09.1a2.48 2.48 0 0 1 .25.3 3.89 3.89 0 0 1 .34.52l.05.07.15.31c.05.11.1.22.14.33l1.23.71a8 8 0 0 0-.79-2l-.15-.24-.21-.31-.13-.17c-.09-.11-.17-.22-.26-.32l-.13-.15-.06-.05-.27-.27-.06-.05c-2.08-1.81-5.21-1.83-8.49.06-4.41 2.78-8.22 8.44-9.44 13.9Z" style="fill:#455a64;transform-origin:123.255px 412.796px 0" id="elgppndgfjgl6" class="animable"/><path d="M117.76 422.82h-.06l-1.92-1.11a.81.81 0 0 0-.83.05L107.4 426l1.92 1.11 7.51-4.33a.79.79 0 0 1 .93.04Z" style="fill:#37474f;transform-origin:112.58px 424.364px 0" id="ellkdxlfxljqr" class="animable"/><path d="M117.92 425.38a7.5 7.5 0 0 1-.58-1.25.36.36 0 0 0-.55-.22l-.75.43a5.86 5.86 0 0 0 1.33 1.57l.65-.37c-.02-.06-.02-.1-.1-.16Z" style="fill:#37474f;transform-origin:117.03px 424.88px 0" id="elwm0ny1js17k" class="animable"/><path d="M118.62 424.7c-.1-.2-.2-.41-.29-.63s-.15-.42-.22-.64a1.8 1.8 0 0 0-.08-.21.83.83 0 0 0-.09-.16l-.12-.12a.79.79 0 0 0-.93 0l-7.51 4.33v1.1l1-.55 5.77-3.34.75-.43a.36.36 0 0 1 .55.22 7.5 7.5 0 0 0 .58 1.25c0 .06.07.1.1.16l.82-.48c0-.05-.07-.11-.11-.17s-.19-.26-.22-.33Z" style="fill:#455a64;transform-origin:114.165px 425.579px 0" id="elzg4yvg0ubis" class="animable"/><path d="M104.44 429.26a1.35 1.35 0 0 0 .79 1.11 4.26 4.26 0 0 0 3.84 0 1.36 1.36 0 0 0 .8-1.12v-8.86h-5.43Z" style="fill:#06d6a0;transform-origin:107.155px 425.609px 0" id="elu7fr13och9" class="animable"/><g id="elbin0yvbehf"><path d="M104.44 429.26a1.35 1.35 0 0 0 .79 1.11 4.26 4.26 0 0 0 3.84 0 1.36 1.36 0 0 0 .8-1.12v-8.86h-5.43Z" style="opacity:.3;transform-origin:107.155px 425.609px 0" class="animable" id="el9gz33sltucw"/></g><g id="elw7fzdgpz0z"><path d="M108 430.75a3.53 3.53 0 0 0 1.12-.38 1.36 1.36 0 0 0 .8-1.12v-8.86H108Z" style="opacity:.3;transform-origin:108.96px 425.57px 0" class="animable" id="elty6rgnugh9"/></g><path d="M109.07 421.5a4.26 4.26 0 0 1-3.84 0 1.17 1.17 0 0 1 0-2.22 4.26 4.26 0 0 1 3.84 0 1.17 1.17 0 0 1 0 2.22Z" style="fill:#06d6a0;transform-origin:107.15px 420.39px 0" id="el7qlzzure6ha" class="animable"/><g id="elutg08ijrybf"><path d="M109.07 421.5a4.26 4.26 0 0 1-3.84 0 1.17 1.17 0 0 1 0-2.22 4.26 4.26 0 0 1 3.84 0 1.17 1.17 0 0 1 0 2.22Z" style="opacity:.2;transform-origin:107.15px 420.39px 0" class="animable" id="el15nryuggmvp"/></g><path d="M108.24 421a2.37 2.37 0 0 1-2.17 0 .79.79 0 0 1-.46-.62.78.78 0 0 1 .46-.64 2.37 2.37 0 0 1 2.17 0 .77.77 0 0 1 .45.63.76.76 0 0 1-.45.63Z" style="fill:#37474f;transform-origin:107.15px 420.37px 0" id="eluyovnl8bg2n" class="animable"/><path d="M106.07 420.35a.91.91 0 0 0-.36.34 1 1 0 0 0 .36.33 2.37 2.37 0 0 0 2.17 0 1 1 0 0 0 .37-.34 1 1 0 0 0-.36-.33 2.39 2.39 0 0 0-2.18 0Z" style="fill:#263238;transform-origin:107.16px 420.685px 0" id="ela3jwb2a56u7" class="animable"/><path d="M54.52 400.44a1.35 1.35 0 0 0 .79 1.11 4.26 4.26 0 0 0 3.84 0 1.36 1.36 0 0 0 .8-1.12v-8.86h-5.43Z" style="fill:#06d6a0;transform-origin:57.235px 396.789px 0" id="eltsz0pi830b" class="animable"/><g id="el0hmi8yye3lvc"><path d="M54.52 400.44a1.35 1.35 0 0 0 .79 1.11 4.26 4.26 0 0 0 3.84 0 1.36 1.36 0 0 0 .8-1.12v-8.86h-5.43Z" style="opacity:.3;transform-origin:57.235px 396.789px 0" class="animable" id="elwbpqqzy4nt"/></g><g id="elrmj0dtnmnl"><path d="M58 401.93a3.53 3.53 0 0 0 1.12-.38 1.36 1.36 0 0 0 .8-1.12v-8.86H58Z" style="opacity:.3;transform-origin:58.96px 396.75px 0" class="animable" id="elpf4gatpnale"/></g><path d="M59.15 392.68a4.26 4.26 0 0 1-3.84 0 1.36 1.36 0 0 1-.79-1.1 1.33 1.33 0 0 1 .79-1.12 4.26 4.26 0 0 1 3.84 0 1.17 1.17 0 0 1 0 2.22Z" style="fill:#06d6a0;transform-origin:57.2351px 391.57px 0" id="el72lwzmp8ayv" class="animable"/><g id="elo295ookv5uk"><path d="M59.15 392.68a4.26 4.26 0 0 1-3.84 0 1.36 1.36 0 0 1-.79-1.1 1.33 1.33 0 0 1 .79-1.12 4.26 4.26 0 0 1 3.84 0 1.17 1.17 0 0 1 0 2.22Z" style="opacity:.2;transform-origin:57.2351px 391.57px 0" class="animable" id="el8jtbkf5lnn4"/></g><path d="M58.32 392.2a2.37 2.37 0 0 1-2.17 0 .79.79 0 0 1-.46-.63.78.78 0 0 1 .46-.63 2.37 2.37 0 0 1 2.17 0 .76.76 0 0 1 .45.63.77.77 0 0 1-.45.63Z" style="fill:#37474f;transform-origin:57.23px 391.57px 0" id="elkac4iotj2z" class="animable"/><path d="M56.15 391.52a.93.93 0 0 0-.36.35 1 1 0 0 0 .36.33 2.37 2.37 0 0 0 2.17 0 1 1 0 0 0 .37-.35 1.06 1.06 0 0 0-.36-.33 2.46 2.46 0 0 0-2.18 0Z" style="fill:#263238;transform-origin:57.24px 391.864px 0" id="elhmx0gzmkjmk" class="animable"/><path d="M37.71 403.32v9.57A16 16 0 0 0 36.2 416a14.07 14.07 0 0 1 1.51-12.68Z" style="fill:#06d6a0;transform-origin:36.5224px 409.66px 0" id="el3v3dbciuno" class="animable"/><g id="elnt663ycz4qb"><path d="M37.71 403.32v9.57A16 16 0 0 0 36.2 416a14.07 14.07 0 0 1 1.51-12.68Z" style="opacity:.2;transform-origin:36.5224px 409.66px 0" class="animable" id="elubz54qxjwsa"/></g><path d="M56.33 394.34a38.26 38.26 0 0 0-6.21 2.83c-13.34 7.71-13.34 20.2 0 27.9s35 7.7 48.32 0a27.09 27.09 0 0 0 4.91-3.59l3.11 1.8a30.77 30.77 0 0 1-5 3.54c-15 8.67-39.37 8.67-54.39 0s-15-22.73 0-31.4a42.19 42.19 0 0 1 6.14-2.88l3.11 1.79" style="fill:#37474f;transform-origin:71.1363px 412.931px 0" id="eljk7hnku9p88" class="animable"/><path d="M56.33 394.34a38.26 38.26 0 0 0-6.21 2.83c-8.8 5.08-11.8 12.25-9 18.75 1.44-3.37 4.44-6.56 9-9.2a38.54 38.54 0 0 1 6.2-2.83Z" style="fill:#263238;transform-origin:48.2181px 405.13px 0" id="el6axmdcknp0d" class="animable"/><path d="M35.83 411.69c.24 5.49 4 10.94 11.26 15.13 15 8.67 39.36 8.67 54.38 0a30.77 30.77 0 0 0 5-3.54v9.55a30.73 30.73 0 0 1-5 3.55c-15 8.67-39.37 8.67-54.38 0-7.51-4.33-11.26-10-11.26-15.69Z" style="fill:#455a64;transform-origin:71.15px 427.286px 0" id="el1851i2tg6sb" class="animable"/><path d="M102.4 430.51a1.34 1.34 0 0 1 .15.66 3.06 3.06 0 0 1-1.39 2.41c-.56.32-1.08.24-1.34-.2a1.34 1.34 0 0 1-.15-.66 3.08 3.08 0 0 1 1.39-2.41c.56-.31 1.08-.24 1.34.2Z" style="fill:#263238;transform-origin:101.11px 431.947px 0" id="elkoemcnb1apg" class="animable"/><path d="M33.78 411.45a16.11 16.11 0 0 0 2.22 7.73 26.66 26.66 0 0 0 10 9.41c10.61 6.12 25.74 8.07 39.23 5.84V444c-13.49 2.22-28.62.28-39.23-5.85a26.64 26.64 0 0 1-10-9.4 16.08 16.08 0 0 1-2.26-8c.04-1.57.04-7.27.04-9.3Z" style="fill:#06d6a0;transform-origin:59.485px 428.169px 0" id="ell7qpjqh9c5d" class="animable"/><g id="elb3nz2r6tcp"><path d="M33.78 411.45a16.11 16.11 0 0 0 2.22 7.73 26.66 26.66 0 0 0 10 9.41c10.61 6.12 25.74 8.07 39.23 5.84V444c-13.49 2.22-28.62.28-39.23-5.85a26.64 26.64 0 0 1-10-9.4 16.08 16.08 0 0 1-2.26-8c.04-1.57.04-7.27.04-9.3Z" style="fill:#fff;opacity:.6;transform-origin:59.485px 428.169px 0" class="animable" id="elzrmstrd1bc"/></g><path d="M37.7 403.33a14.09 14.09 0 0 0-.34 15.09 24.93 24.93 0 0 0 9.47 8.84c10.39 6 25.26 7.88 38.46 5.64v1.53c-13.49 2.23-28.62.28-39.23-5.84a26.66 26.66 0 0 1-10-9.41 15.43 15.43 0 0 1-.12-15.86Z" style="fill:#06d6a0;transform-origin:59.5479px 419.321px 0" id="el8h2y7n6vgyn" class="animable"/></g></g><g id="freepik--Character--inject-139" style="transform-origin:368.875px 260.561px 0;animation:1s 1 forwards cubic-bezier(.36,-.01,.5,1.38) slideUp;animation-delay:0s" class="animable"><g id="freepik--character--inject-139" style="transform-origin:368.875px 260.561px 0" class="animable"><g id="freepik--Bottom--inject-139" style="transform-origin:379.405px 341.139px 0" class="animable"><path d="M384.82 331.28 397.18 311l24.12 14.06c-13.82 11.71-28.86 26.08-32.37 31.38 0 0-13.28-4-14.87-11.08s6.94-12.07 10.76-14.08Z" style="fill:#c8856a;transform-origin:397.582px 333.72px 0" id="el1lksreiyjp9" class="animable"/><path d="M369 338.4a11.23 11.23 0 0 0-3.25 3c-1 1.22-1.18 7.49-2.24 10.33s-1.75 3.56-3.42 7.09c-1.85 3.91-5 7.38-2.57 18 2.44 10.76 7.17 16 11.32 18.82a11.34 11.34 0 0 0 5.13 1.67s5.86-1.71 5.25-5.14S369 338.4 369 338.4Z" style="fill:#263238;transform-origin:367.95px 367.855px 0" id="el7l3lvmy8r7n" class="animable"/><path d="M393.05 351.71c-.24 1.05-1.86 2.58-2.53 3.4-2.27 2.77-3.52 6.66-4.49 10.07-4.63 16.14 1.24 25-8.06 30.44-2.68 1.41-8 .56-15.21-10.4-3.71-5.59-5.21-16.63-3.23-21.42s4.43-7.82 5.76-11.53 1.34-10.78 3.68-13.87a15.31 15.31 0 0 1 5.46-4c1.64-.83 5.16-1.81 6.82-2.6s2.63-1.74 3.57-.51l-2 2.14c-3.19 3.76-2.43 4.4-2.53 6.53s-1 4.5-1.59 6.67c2.25-2.43 3.26-4.62 5.46-4.05s2.48.48 5.45 3.73 3.65 4.46 3.44 5.4Z" style="fill:#06d6a0;transform-origin:375.869px 363.419px 0" id="el5quo34jivav" class="animable"/><g id="elcohkvekxfat"><path d="M393.05 351.71c-.24 1.05-1.86 2.58-2.53 3.4-2.27 2.77-3.52 6.66-4.49 10.07-4.63 16.14 1.24 25-8.06 30.44-2.68 1.41-8 .56-15.21-10.4-3.71-5.59-5.21-16.63-3.23-21.42s4.43-7.82 5.76-11.53 1.34-10.78 3.68-13.87a15.31 15.31 0 0 1 5.46-4c1.64-.83 5.16-1.81 6.82-2.6s2.63-1.74 3.57-.51l-2 2.14c-3.19 3.76-2.43 4.4-2.53 6.53s-1 4.5-1.59 6.67c2.25-2.43 3.26-4.62 5.46-4.05s2.48.48 5.45 3.73 3.65 4.46 3.44 5.4Z" style="opacity:.4;transform-origin:375.869px 363.419px 0" class="animable" id="ely84edare6qp"/></g><g id="el2pbe5xxoqga"><path d="M362.76 385.22c-3.71-5.59-5.21-16.63-3.23-21.42a47.53 47.53 0 0 1 2.26-4.62c-.09.33-.22.66-.29.94-.14.63-.28 1.26-.39 1.9a14.78 14.78 0 0 0 .24 7.5c.77 2.12 2.51 7.41 5.26 7.73 1.56.19 3-1.24 3.74-2.94.31-.71.88-2.67.88-2.67a24.29 24.29 0 0 1 6.94 3.48c3.8 3 3.61 3.53 3.61 3.53a10.46 10.46 0 0 0-.4 3.51 8.64 8.64 0 0 0 1.22 3.61 5.72 5.72 0 0 0 .95.9c-.46 3.76-1.68 6.66-5.58 8.95-2.68 1.38-7.97.56-15.21-10.4Z" style="opacity:.3;transform-origin:371.102px 377.653px 0" class="animable" id="elak5y3bnc23a"/></g><path d="M386 365.18a55.28 55.28 0 0 0-2 13c-1.83 4.08-3.14 3.85-3.16 1.67s3.59-11 6.33-18.29c-.44 1.24-.81 2.44-1.17 3.62Z" style="fill:#37474f;transform-origin:384.005px 371.477px 0" id="eltn479k3t13s" class="animable"/><path d="M378.09 338.12a9.11 9.11 0 0 1 2.07-5.87c.4-.16.79-.31 1.09-.46 1.81-.84 2.63-1.74 3.57-.51l-2 2.14c-3.19 3.76-2.43 4.4-2.53 6.53s-1 4.5-1.59 6.66c-2.22 7-3.93 9.25-5.24 15.92s-.31 11.28-1.29 11.59-2.84-.6-2.77-6 3.15-14.29 5.16-18.45 3.64-8.67 3.53-11.55Z" style="fill:#37474f;transform-origin:377.109px 352.426px 0" id="elbuv4g0w8g9g" class="animable"/><path d="M370.72 372.07a.65.65 0 0 0 .33.22c4.64 1.33 7.06 2.71 10.26 7.12a.67.67 0 1 0 1.09-.78c-3.38-4.66-6-6.22-11-7.64a.69.69 0 0 0-.84.46.68.68 0 0 0 .16.62Z" style="fill:#ebebeb;transform-origin:376.533px 375.328px 0" id="elug864k7gds" class="animable"/><path d="M372 366.53a.64.64 0 0 0 .32.21c4.8 1.51 7.4 3.11 10.79 7.75a.67.67 0 0 0 1 .15.69.69 0 0 0 .15-1c-3.58-4.89-6.41-6.65-11.49-8.25a.68.68 0 0 0-.87.45.71.71 0 0 0 .1.69Z" style="fill:#ebebeb;transform-origin:378.131px 370.077px 0" id="el3biq4ghjy3d" class="animable"/><path d="M372.36 360.35a.75.75 0 0 0 .36.23c5.28 1.67 8.31 3.58 12 8.7a.76.76 0 1 0 1.23-.89c-3.94-5.39-7.22-7.5-12.83-9.26a.75.75 0 0 0-.95.5.78.78 0 0 0 .19.72Z" style="fill:#ebebeb;transform-origin:379.132px 364.359px 0" id="elhapgsnqcukp" class="animable"/><path d="M373.67 355.14a.69.69 0 0 0 .34.23c5.19 1.63 8.12 3.47 11.79 8.5a.76.76 0 0 0 1.05.16.75.75 0 0 0 .16-1c-3.86-5.28-7.06-7.32-12.55-9a.75.75 0 0 0-.94.49.74.74 0 0 0 .15.62Z" style="fill:#ebebeb;transform-origin:380.319px 359.084px 0" id="el82p6h7prfgu" class="animable"/><path d="M376 350.15a.66.66 0 0 0 .35.23c5.18 1.64 8.11 3.47 11.79 8.51a.76.76 0 0 0 1 .16.75.75 0 0 0 .16-1c-3.86-5.29-7-7.32-12.55-9.05a.74.74 0 0 0-.79 1.19Z" style="fill:#ebebeb;transform-origin:382.6px 354.066px 0" id="elu1ftlin09um" class="animable"/><path d="M365.74 252.07s57.12 2.4 78.68 5.82c22 3.5 21.52 20.35 14.46 29.63-13.5 17.78-53.63 52.2-53.63 52.2s-13.07-6.23-15.23-17.47l10.08-18.09-43.58-.63-6.92-6.77Z" style="fill:#455a64;transform-origin:406.404px 295.895px 0" id="el9bsnycd1px" class="animable"/><path d="M412.49 321.4c-3.81-6.76-6.74-8.65-14.82-12.9L390 322.25c2.16 11.24 15.23 17.47 15.23 17.47s4.63-4 11.26-9.9a83.39 83.39 0 0 0-4-8.42Z" style="fill:#37474f;transform-origin:403.245px 324.11px 0" id="elk8nssivyul" class="animable"/><path d="M405.81 286.48c-3.38 3.69-6.35 7-8.92 10.24s-9.2 4-15.44 1.66c-7.76-2.86-16.24-8.24-21.18-11.33 5.91-8.2 3.67-18.23 3.67-18.23.1 7.19-4.09 12.81-7.23 16l-3.36 2.94-.1 11.43 2.51 4.22 37.49.54 6.09.09c10.34-16.91 14.46-24.41 24.4-26.68 0 0-7.9-1.82-17.93 9.12Z" style="fill:#37474f;transform-origin:388.495px 286.43px 0" id="eluswx8daqjtn" class="animable"/><path d="m419.6 399.26-16.16-23.56 21.48-13.54c6.78 15.1 13.43 29.56 18.28 35.48 0 0-5.66 12-12.87 11.67s-9.82-5.84-10.73-10.05Z" style="fill:#c8856a;transform-origin:423.32px 385.738px 0" id="elqfjxtdojuud" class="animable"/><path d="M422.27 412.36a11.22 11.22 0 0 0 2.06 3.93c.92 1.26 6.91 3.15 9.36 4.92s3 2.64 5.92 5.19c3.28 2.83 5.78 6.77 16.65 7.28s17.28-2.65 21.15-5.88a11.46 11.46 0 0 0 3-4.5s-.08-6.1-3.55-6.43-54.59-4.51-54.59-4.51Z" style="fill:#263238;transform-origin:451.34px 423.047px 0" id="eldt2yoljqh9" class="animable"/><path d="M441.53 392.7c1 .52 2 2.48 2.6 3.35 2.07 2.93 5.48 5.17 8.51 7C467 411.84 477 408.54 479.82 419c.65 3-1.58 7.81-14.08 11.88-6.39 2.08-17.43.59-21.51-2.61s-6.36-6.36-9.57-8.63-10-4.17-12.39-7.24a15.3 15.3 0 0 1-2.4-6.34c-.36-1.8-1.24-7.94-1.24-7.94 2.78 4.08 6.13 3.13 8.15 3.79s4.06 2.19 6 3.32c-1.73-2.81-3.57-4.37-2.44-6.34s1.13-2.26 5.05-4.25 5.29-2.39 6.14-1.94Z" style="fill:#06d6a0;transform-origin:449.276px 412.187px 0" id="el4usmx0ek42q" class="animable"/><g id="el31hoqyjlexo"><path d="M441.53 392.7c1 .52 2 2.48 2.6 3.35 2.07 2.93 5.48 5.17 8.51 7C467 411.84 477 408.54 479.82 419c.65 3-1.58 7.81-14.08 11.88-6.39 2.08-17.43.59-21.51-2.61s-6.36-6.36-9.57-8.63-10-4.17-12.39-7.24a15.3 15.3 0 0 1-2.4-6.34c-.36-1.8-1.24-7.94-1.24-7.94 2.78 4.08 6.13 3.13 8.15 3.79s4.06 2.19 6 3.32c-1.73-2.81-3.57-4.37-2.44-6.34s1.13-2.26 5.05-4.25 5.29-2.39 6.14-1.94Z" style="opacity:.4;transform-origin:449.276px 412.187px 0" class="animable" id="elbejnypdg86v"/></g><g id="el0iv076zz0x7d"><path d="M465.74 430.84c-6.39 2.08-17.43.59-21.51-2.61a43.58 43.58 0 0 1-3.85-3.41c.29.18.58.39.83.53.56.31 1.14.61 1.72.88a14.72 14.72 0 0 0 7.3 1.78c2.24-.18 7.81-.45 8.86-3 .59-1.45-.4-3.22-1.84-4.38-.61-.49-2.34-1.57-2.34-1.57a24.35 24.35 0 0 1 5.21-5.76c3.86-2.87 4.36-2.53 4.36-2.53a10.63 10.63 0 0 0 3.27 1.32 8.74 8.74 0 0 0 3.81-.21 5.39 5.39 0 0 0 1.12-.68c3.51 1.45 6 3.4 7.14 7.77.65 2.95-1.58 7.8-14.08 11.87Z" style="opacity:.3;transform-origin:460.151px 421.279px 0" class="animable" id="el6t7715i2jq"/></g><path d="M452.64 403.07a55 55 0 0 0 12 5.44c3.44 2.86 2.87 4.06.76 3.49s-9.64-6.39-15.93-11c1.06.76 2.14 1.44 3.17 2.07Z" style="fill:#37474f;transform-origin:458.286px 406.569px 0" id="elfwx62gm4m4m" class="animable"/><path d="M424.44 403.49c-2-.47-3.62-.58-5.22-1.8-1-.72-1.27-3.36-1-4.49l1.52 2.19c2.86 1.83 5.06 1.82 7.08 2.48s4.06 2.19 6 3.32c6.14 4 7.87 6.26 13.94 9.3s10.79 3.31 10.83 4.34-1.35 2.57-6.55 1.06S438.07 413 434.6 410s-7.34-5.84-10.16-6.51Z" style="fill:#37474f;transform-origin:437.856px 408.861px 0" id="elj6aucmmls5" class="animable"/><path d="M455.19 419.66a.61.61 0 0 0 .29-.26c2.53-4.12 4.51-6.08 9.61-8a.69.69 0 0 0 .4-.87.68.68 0 0 0-.87-.39c-5.39 2-7.6 4.16-10.29 8.54a.67.67 0 0 0 .23.92.64.64 0 0 0 .63.06Z" style="fill:#ebebeb;transform-origin:459.881px 414.907px 0" id="el56nrht6ymt7" class="animable"/><path d="M450.19 416.94a.59.59 0 0 0 .29-.25c2.74-4.22 5-6.3 10.35-8.33a.68.68 0 0 0 .41-.89.7.7 0 0 0-.89-.4c-5.68 2.14-8.13 4.4-11 8.87a.71.71 0 0 0 .21 1 .68.68 0 0 0 .63 0Z" style="fill:#ebebeb;transform-origin:455.257px 412.023px 0" id="el7mdgd2tcchp" class="animable"/><path d="M444.33 415a.86.86 0 0 0 .32-.28c3-4.65 5.67-7.06 11.61-9.3a.76.76 0 0 0-.54-1.42c-6.24 2.35-9.15 5-12.35 9.89a.76.76 0 0 0 .22 1.05.78.78 0 0 0 .74.06Z" style="fill:#ebebeb;transform-origin:449.987px 409.512px 0" id="elbhy5aechmv" class="animable"/><path d="M439.66 412.3a.8.8 0 0 0 .34-.3c3-4.57 5.52-6.9 11.35-9.1a.74.74 0 0 0-.53-1.39c-6.12 2.3-8.94 4.84-12.07 9.68a.75.75 0 0 0 .22 1 .77.77 0 0 0 .69.11Z" style="fill:#ebebeb;transform-origin:445.237px 406.899px 0" id="ell7li5hac78" class="animable"/><path d="M435.47 408.72a.76.76 0 0 0 .32-.27c3-4.56 5.51-6.9 11.34-9.1a.74.74 0 1 0-.52-1.39c-6.13 2.31-8.94 4.84-12.07 9.67a.75.75 0 0 0 .93 1.09Z" style="fill:#ebebeb;transform-origin:441.018px 403.347px 0" id="elb2p4ovt1ahw" class="animable"/><path d="M433.1 378.21c-6.16 7.94-20.31 13.16-20.31 13.16s-4.79-5.87-16.47-18.77c-8.25-9.09-14.84-17.85-19-28-15.46-5.62-44.86-13.22-71.61-29.08-19.16-11.35-24.8-27.34-19.05-53.22s83.74-7.3 83.74-7.3l-17 32.74s33.39 18.92 44.7 25.73c5.2 3.13 6.78 3.29 11.94 13.4 11.77 23.13 23.06 51.34 23.06 51.34Z" style="fill:#455a64;transform-origin:358.808px 319.957px 0" id="eloiez6hpdv2f" class="animable"/><path d="M433.1 378.21c-6.16 7.94-20.31 13.16-20.31 13.16s-4.79-5.87-16.47-18.77c-8.25-9.09-14.84-17.85-19-28-15.46-5.62-44.86-13.22-71.61-29.08-19.16-11.35-24.2-22.8-27.31-46l87.31-17.48-12.39 35.69s33.39 18.92 44.7 25.73c5.2 3.13 6.78 3.29 11.94 13.4 11.85 23.14 23.14 51.35 23.14 51.35Z" style="fill:#455a64;transform-origin:355.75px 321.705px 0" id="elvf03wnmpo7m" class="animable"/><path d="m417 389.59 1.14-.55c-6.09-7.76-21.34-27.84-25.66-36-1.49-2.82-2.62-5.31-3.61-7.5-2.34-5.17-3.88-8.58-7.41-10-.76-.31-2.59-1-5.37-2-14.13-5.22-51.66-19.06-64-28.39-.36-.28-.7-.57-1.05-.86 5.3-3.87 6.12-12.69 3.42-18.6-2.89-6.32-4-18.19-1.09-23.45l-1.08-.6c-3.42 6.12-1.67 18.64 1 24.57 2.54 5.55 1.63 13.95-3.29 17.27-11.66-10-16-25.12-12.56-43.83l-1.22-.23c-3.74 20.28 1.48 36.43 15.08 46.72 12.49 9.44 50.15 23.33 64.33 28.56 2.66 1 4.58 1.69 5.32 2 3.08 1.27 4.54 4.5 6.75 9.4 1 2.21 2.13 4.72 3.64 7.57 4.57 8.53 19.98 28.69 25.66 35.92Z" style="fill:#37474f;transform-origin:356.592px 324.505px 0" id="eltkgkuwfg6e" class="animable"/></g><g id="freepik--Top--inject-139" style="transform-origin:332.61px 193.823px 0" class="animable"><path d="M336.53 159.83c5.12-1.85 13.71-.37 20.28 8.07s17.05 48.78 17.05 48.78l22.9 21-2.76 18.13a290.8 290.8 0 0 1-31.29-11c-5.18-2.26-6.53-4.3-8.52-12.08-3.33-13-5.72-28-5.72-28Z" style="fill:#c8856a;transform-origin:366.645px 207.467px 0" id="eldzhd4f2col" class="animable"/><path d="M336.19 158.56c11.4-1.52 17.08 2.41 21.21 8.66s14.54 38.91 14.54 38.91-10.46 14.05-28.72 11.69Z" style="fill:#455a64;transform-origin:354.065px 188.16px 0" id="el179mu6cq573" class="animable"/><g id="freepik--Chest--inject-139" style="transform-origin:319.916px 188.742px 0" class="animable"><path d="M357.92 192c-.6-16.09-9.59-32.07-21.73-33.42l-21.54 3.89c-5.94 1.22-27.2 8.78-33.45 12.55-7.3 4.41-6.6 9.62-7.55 24.38-.78 12-.27 30.32.75 43.55 1.07 13.85 2.78 30.25 6.51 46.16 29.57 5.44 78.07-12.24 85.65-37-1.54-5-6.61-18.19-7.58-28.14-1.4-14.53-.78-24.46-1.06-31.97Z" style="fill:#263238;transform-origin:319.916px 224.339px 0" id="elzr419cmu1e" class="animable"/><g id="freepik--Head--inject-139" style="transform-origin:308.289px 135.408px 0" class="animable"><path d="M328.26 153.9c.86-6.46 7-13.39 9.7-19.09 2.58-5.5 4.09-9.74 3.59-14.81-.29-3-2.33-7-4.59-7.78 2.19-11.27-6.38-16.16-10.87-17.06a49.4 49.4 0 0 1-6.22-1.5c-2.45-.93-3.07-2.86-5.08-4.45-3.46-2.73-9.12-2.6-11.12 1.8-2.34-2.81-5.37-2.63-8.85-1.62a6 6 0 0 0-4.35 6.92c-4.77-2.45-9 1-9.29 3.78-.25 2 .25 3.74-1 5.61-1.43 2.1-4.26 2.17-5.18.54-.38 2.9.83 5.07 3.95 4.8a6.56 6.56 0 0 0-.62 5.53 6 6 0 0 0 5.55 3.94c.39 1.57.51 3 1.55 4.35a10.43 10.43 0 0 0 3.81 3.2c4.82 2.09 10.08 2.64 15.23 3.52l6.1 1c.36.06 2.19.11 2.42.41Z" style="fill:#263238;transform-origin:308.289px 120.643px 0" id="elzmxeys3680l" class="animable"/><path d="M335.74 145.32c-4.42 2.85-7.21.31-7.21.31l.57 22.37c1.95 3.61 4.44 8.7.9 15.43-4.4-.16-24.11-6.68-27.11-19.16l-.18-3.24a60.9 60.9 0 0 1-7.65-.07c-5.06-.51-9-4.46-10.62-9.86a56.92 56.92 0 0 1-1.38-21.59 18.46 18.46 0 0 0 .09-5.3c-.65-4.67.1-7.42 1.17-11.4 5.38-4.66 18.14-6.63 30.35.22-1.13 7.16 1.83 12.69 7.1 15.22-.18 1.93-.24 6.79 2.91 6.59 2.27-.15 2.32-3 4.57-5.6s7.67-3.46 9.91.17c3.13 5.08 1.43 12.78-3.42 15.91Z" style="fill:#c8856a;transform-origin:311.671px 146.005px 0" id="elqx5irjsdwf" class="animable"/><path d="M302.71 161c8-1.22 14-2.3 18-8.24a50.11 50.11 0 0 0 4.48-9.63s-.57 7.1-3 12c-1.88 3.77-6.8 7-19.28 8.54Z" style="fill:#af6152;transform-origin:313.95px 153.4px 0" id="elwkwaschczlr" class="animable"/><path d="M305.5 130a2.27 2.27 0 0 0 2.36 2.21 2.34 2.34 0 1 0-2.36-2.21Z" style="fill:#263238;transform-origin:307.836px 129.871px 0" id="elsal5vucprh" class="animable"/><path d="m305.84 122.56 5.16 1.89a2.87 2.87 0 0 0-1.69-3.61 2.68 2.68 0 0 0-3.47 1.72Z" style="fill:#263238;transform-origin:308.498px 122.565px 0" id="elaqg61no3ij" class="animable"/><path d="m286.53 124.75 5.12-2.12a2.67 2.67 0 0 0-3.53-1.56 2.92 2.92 0 0 0-1.59 3.68Z" style="fill:#263238;transform-origin:289.002px 122.809px 0" id="el28gbygybmvh" class="animable"/><path d="M288 130a2.25 2.25 0 1 0 1.91-2.63A2.29 2.29 0 0 0 288 130Z" style="fill:#263238;transform-origin:290.217px 129.599px 0" id="elkvqhd1n6v1b" class="animable"/><path d="m291.51 138.1 7.95 3.19 1.84-15.43c-2.94-.93-6.42 6.26-9.79 12.24Z" style="fill:#af6152;transform-origin:296.405px 133.534px 0" id="elag9i03uoyp" class="animable"/><path d="m306.91 144.2-9.33 2.36a4.73 4.73 0 0 0 5.75 3.64 5 5 0 0 0 3.58-6Z" style="fill:#af6152;transform-origin:302.315px 147.267px 0" id="el1ka6a0xermh" class="animable"/><path d="M305.83 145.78a5 5 0 0 1 1.16 0 5 5 0 0 1-3.66 4.45 4.48 4.48 0 0 1-1.54.11 4.41 4.41 0 0 1 4.04-4.56Z" style="fill:#ffa8a7;transform-origin:304.388px 148.055px 0" id="elpt3ojxz2nc" class="animable"/></g></g><g id="elol37u24m9fn"><ellipse cx="368.31" cy="239.08" rx="47.71" ry="21.43" style="fill:#37474f;transform-origin:368.31px 239.08px 0;transform:rotate(-60.47deg)" class="animable" id="ellckacbq8r8"/></g><path d="M385.45 229.18c-1.76 9.41 2.44 13.78 9.39 9.77a19.4 19.4 0 0 0 1.92-1.28l-4.88 26.09-63.22 36.5 16-85.63 63.22-36.5-4.81 25.87a13.11 13.11 0 0 0-1.86.9c-6.94 3.99-13.99 14.87-15.76 24.28Z" style="fill:#06d6a0;transform-origin:368.27px 239.195px 0" id="el60c4p0rwimq" class="animable"/><path d="M351.69 218a.22.22 0 0 1-.18-.1.2.2 0 0 1 .08-.29L397.77 191a.21.21 0 0 1 .21.37L351.8 218a.2.2 0 0 1-.11 0Z" style="fill:#fafafa;transform-origin:374.782px 204.49px 0" id="el3nqd5ebnhcw" class="animable"/><path d="M350.83 222.63a.21.21 0 0 1-.18-.11.21.21 0 0 1 .08-.29l46.18-26.66a.21.21 0 0 1 .21.37l-46.18 26.66a.23.23 0 0 1-.11.03Z" style="fill:#fafafa;transform-origin:373.924px 209.086px 0" id="elcdvv4cfyc79" class="animable"/><path d="M340.45 278.09a.21.21 0 0 1-.19-.1.21.21 0 0 1 .08-.29l46.18-26.7a.22.22 0 0 1 .29.08.21.21 0 0 1-.07.29l-46.19 26.67Z" style="fill:#fafafa;transform-origin:363.536px 264.533px 0" id="el5pd7rq74n74" class="animable"/><path d="M339.59 282.69a.21.21 0 0 1-.11-.4l46.18-26.66a.21.21 0 0 1 .29.08.21.21 0 0 1-.08.29l-46.18 26.66a.19.19 0 0 1-.1.03Z" style="fill:#fafafa;transform-origin:362.668px 269.146px 0" id="ellcrwtmoflud" class="animable"/><path d="M338.7 287.44a.21.21 0 0 1-.19-.1.21.21 0 0 1 .08-.29l46.18-26.67a.22.22 0 0 1 .29.08.21.21 0 0 1-.07.29l-46.19 26.67Z" style="fill:#fafafa;transform-origin:361.786px 273.898px 0" id="elcxhy4vgt7t" class="animable"/><path d="M349.54 229.53a.22.22 0 0 1-.11-.4l21.89-12.63a.21.21 0 0 1 .29.07.22.22 0 0 1-.08.3l-21.88 12.63a.23.23 0 0 1-.11.03Z" style="fill:#fafafa;transform-origin:360.488px 222.999px 0" id="el60q8uj8d5ev" class="animable"/><path d="M378.26 213a.22.22 0 0 1-.11-.4l7-4.06a.21.21 0 1 1 .21.37l-7 4.06a.23.23 0 0 1-.1.03Z" style="fill:#fafafa;transform-origin:381.762px 210.756px 0" id="elbhpmjtsv6e" class="animable"/><path d="M348.49 235.15a.21.21 0 0 1-.19-.1.21.21 0 0 1 .08-.29l21.88-12.64a.22.22 0 0 1 .29.08.21.21 0 0 1-.07.29l-21.89 12.64a.18.18 0 0 1-.1.02Z" style="fill:#fafafa;transform-origin:359.426px 228.623px 0" id="elehsa25zuyrt" class="animable"/><path d="M377.21 218.57a.23.23 0 0 1-.19-.1.21.21 0 0 1 .08-.29l7-4.06a.21.21 0 0 1 .29.07.21.21 0 0 1-.07.29l-7 4.06a.19.19 0 0 1-.11.03Z" style="fill:#fafafa;transform-origin:380.706px 216.329px 0" id="el70ewswxqqkk" class="animable"/><path d="M347.43 240.78a.22.22 0 0 1-.18-.1.21.21 0 0 1 .08-.29l21.88-12.64a.21.21 0 0 1 .21.37l-21.88 12.63a.2.2 0 0 1-.11.03Z" style="fill:#fafafa;transform-origin:358.374px 234.251px 0" id="el14iga9chccei" class="animable"/><path d="M376.15 224.2a.21.21 0 0 1-.18-.11.21.21 0 0 1 .08-.29l7-4.06a.21.21 0 1 1 .21.37l-7 4.06a.2.2 0 0 1-.11.03Z" style="fill:#fafafa;transform-origin:379.654px 221.956px 0" id="elmriy0c165em" class="animable"/><path d="M346.38 246.41a.24.24 0 0 1-.19-.11.22.22 0 0 1 .08-.29l21.89-12.63a.21.21 0 0 1 .29.08.21.21 0 0 1-.08.29l-21.88 12.63a.23.23 0 0 1-.11.03Z" style="fill:#fafafa;transform-origin:357.322px 239.881px 0" id="el23pbm3jbr4l" class="animable"/><path d="M375.1 229.83a.23.23 0 0 1-.19-.11.22.22 0 0 1 .08-.29l7-4.06a.21.21 0 1 1 .21.37l-7 4.06a.23.23 0 0 1-.1.03Z" style="fill:#fafafa;transform-origin:378.596px 227.586px 0" id="elvfedd0rk1s" class="animable"/><path d="M345.33 252a.21.21 0 0 1-.11-.4L367.1 239a.21.21 0 0 1 .29.07.21.21 0 0 1-.07.29L345.43 252a.19.19 0 0 1-.1 0Z" style="fill:#fafafa;transform-origin:356.259px 245.488px 0" id="els1xwqm5o2k" class="animable"/><path d="M374.05 235.46a.21.21 0 0 1-.11-.4l7-4.06a.21.21 0 0 1 .29.08.21.21 0 0 1-.07.29l-7 4.06a.19.19 0 0 1-.11.03Z" style="fill:#fafafa;transform-origin:377.539px 233.216px 0" id="el337hm5vkff6" class="animable"/><path d="M344.27 257.66a.2.2 0 0 1-.18-.1.21.21 0 0 1 .08-.29l21.88-12.64a.21.21 0 0 1 .21.37l-21.88 12.64Z" style="fill:#fafafa;transform-origin:355.214px 251.131px 0" id="elwzxwl3gqxek" class="animable"/><path d="M373 241.08a.22.22 0 0 1-.18-.1.2.2 0 0 1 .08-.29l7-4.07a.22.22 0 0 1 .29.08.21.21 0 0 1-.08.29l-7 4.06a.2.2 0 0 1-.11.03Z" style="fill:#fafafa;transform-origin:376.503px 238.837px 0" id="el6nkvdee2s6g" class="animable"/><path d="M343.22 263.29a.24.24 0 0 1-.19-.1.23.23 0 0 1 .08-.3L365 250.26a.22.22 0 1 1 .22.37l-21.88 12.63a.23.23 0 0 1-.12.03Z" style="fill:#fafafa;transform-origin:354.187px 256.746px 0" id="ely1598nnk8" class="animable"/><path d="M371.94 246.71a.23.23 0 0 1-.19-.11.22.22 0 0 1 .08-.29l7-4.06a.21.21 0 0 1 .21.37l-7 4.06a.23.23 0 0 1-.1.03Z" style="fill:#fafafa;transform-origin:375.436px 244.466px 0" id="elmkcwnnl02f" class="animable"/><path d="M342.17 268.92a.21.21 0 0 1-.11-.4l21.88-12.63a.21.21 0 0 1 .21.37l-21.88 12.63a.19.19 0 0 1-.1.03Z" style="fill:#fafafa;transform-origin:353.097px 262.392px 0" id="elvtsglabubgd" class="animable"/><path d="M370.89 252.34a.21.21 0 0 1-.11-.4l7-4.06a.21.21 0 0 1 .29.08.21.21 0 0 1-.08.29l-7 4.06a.19.19 0 0 1-.1.03Z" style="fill:#fafafa;transform-origin:374.378px 250.096px 0" id="elgp0foeobxx8" class="animable"/><path d="M284.19 174.44C273.79 178.37 268 181.68 265 198c-1.89 10.29-5.71 31.36-7.11 46.76-1.18 13.08-1.34 16.47 10.8 21.44 12.8 5.24 38.72 11.47 47.16 13.7 5.22 1.38 11.46 4.54 18.91 4.55l.2-17.63 1.6-8.51c-5.56.71-10.72 2.52-15.68 2.68-6.2.2-35.87-16.23-35.87-16.23l6.49-35.19s7.32-25.65-7.31-35.13Z" style="fill:#c8856a;transform-origin:296.966px 229.445px 0" id="elf9ixr1g7yh7" class="animable"/><path d="M284.54 173.26c-6.88 2.91-14.52 4.19-18.84 17.9s-8.36 40-8.36 40 4.33 4.84 15.93 6.49 14.72 0 14.72 0 5-26.89 6-35.4 2.48-23.25-9.45-28.99Z" style="fill:#455a64;transform-origin:275.992px 205.822px 0" id="elwkqltv6lrei" class="animable"/><path d="M395.79 242.86c-3.64 2.72-9.84 5.16-11.82 9.55-.37.82-.29 2.33.91 2.69-.41 3.22 2.28 6.12 5.25 5.14a11.32 11.32 0 0 0 6.92-5.32c5.57-9.08-.29-17.25-.29-17.25Z" style="fill:#c8856a;transform-origin:391.614px 249.052px 0" id="el2o5zda9tkby" class="animable"/><path d="M361.73 266.37a4 4 0 0 0 .41-1.93 2 2 0 0 0-.6-1.5 2.5 2.5 0 0 0-2.05-.27c-5 .84-9.7 2.95-14.78 3.28a16.52 16.52 0 0 1-6.6-.95c-.88-.31-2.48-.95-2.44-2.16l-.71 3.77-.23 17.79a33.83 33.83 0 0 0 5.54-.11 58 58 0 0 0 3.1-.37 30.37 30.37 0 0 0 12.23-4.27 16 16 0 0 0 3.44-3c1.52-1.78 1.81-4.7 1.55-6.95a3.41 3.41 0 0 1 .06-1.74 4.62 4.62 0 0 1 .66-.93 4.29 4.29 0 0 0 .42-.66Z" style="fill:#c8856a;transform-origin:348.437px 273.514px 0" id="el6h7xg6sq19x" class="animable"/></g></g></g><g id="freepik--speech-bubble--inject-139" style="transform-origin:386.629px 95.5506px 0" class="animable"><g style="transform-origin:386.629px 95.5506px 0" class="animable"><g style="transform-origin:386.629px 95.5506px 0" class="animable"><path d="m356.62 117.84 5.31-9.08 6.73 8.46-10 3.13a1.72 1.72 0 0 1-2.04-2.51Z" style="fill:#06d6a0;transform-origin:362.517px 114.603px 0" id="el40bdqd1d3zi" class="animable"/><g id="elrerppgo1xtr"><path d="m356.62 117.84 5.31-9.08 6.73 8.46-10 3.13a1.72 1.72 0 0 1-2.04-2.51Z" style="opacity:.3;transform-origin:362.517px 114.603px 0" class="animable" id="elktx9daj22j"/></g><path d="M410.45 77.09a29.66 29.66 0 1 0-4.76 41.68 29.69 29.69 0 0 0 4.76-41.68Z" style="fill:#06d6a0;transform-origin:387.229px 95.5506px 0" id="el911p63be5xq" class="animable"/><g id="elwamdh3f6io"><path d="M410.45 77.09a29.66 29.66 0 1 0-4.76 41.68 29.69 29.69 0 0 0 4.76-41.68Z" style="opacity:.3;transform-origin:387.229px 95.5506px 0" class="animable" id="elnzjwatvhqbm"/></g><g id="elks1hw1f2uc"><circle cx="387.04" cy="95.47" r="26.81" style="fill:#fff;transform-origin:387.04px 95.47px 0;transform:rotate(-17.55deg)" class="animable" id="elz6kcfpa49is"/></g></g><path id="freepik--musical-note--inject-139" d="m374.67 88.08 4.94 16a4.21 4.21 0 0 0-1.48.18 4.38 4.38 0 1 0 5.49 2.88L379.2 92.8l13.27-8.25 4.41 14.21a4.45 4.45 0 0 0-1.48.18 4.38 4.38 0 1 0 5.49 2.89l-7.36-23.73Z" style="fill:#37474f;transform-origin:387.878px 95.4607px 0" class="animable"/></g></g><g id="freepik--musical-notes--inject-139" style="transform-origin:221.56px 102.581px 0;animation:1s 1 forwards cubic-bezier(.36,-.01,.5,1.38) slideDown,3s Infinite linear floating;animation-delay:0s,1s" class="animable"><g id="freepik--Notes--inject-139" style="transform-origin:221.56px 102.581px 0" class="animable"><path d="m237.6 87.64-2.21 10a2.62 2.62 0 0 0-.84-.35 2.68 2.68 0 1 0 2 3.19l2-9 9.56-.39-1.91 8.91a2.72 2.72 0 0 0-.84-.35 2.68 2.68 0 1 0 2 3.2L250.65 88Z" style="fill:#06d6a0;transform-origin:240.952px 96.2894px 0" class="animable"/><path d="M216.57 134a4.91 4.91 0 0 1 1.89-.63 10.41 10.41 0 0 1 2.67.1 19.3 19.3 0 0 0 3.55.33 4.49 4.49 0 0 0 3.19-1.4 4.67 4.67 0 0 1-2.07-.11c-1.61-.46-3-2-4.48-2.78-2.2-1.16-4.27-.89-6.78 0 .18 2.18.3 4.37.45 6.55.11 1.72.23 3.43.34 5.14 0 .16.1 2.34.1 2.34a4.45 4.45 0 0 0-1.94-.32 3.68 3.68 0 1 0 3.93 3.42Z" style="fill:#06d6a0;transform-origin:218.969px 139.655px 0" class="animable"/><path d="M216.57 134a4.91 4.91 0 0 1 1.89-.63 10.41 10.41 0 0 1 2.67.1 19.3 19.3 0 0 0 3.55.33 4.49 4.49 0 0 0 3.19-1.4 4.67 4.67 0 0 1-2.07-.11c-1.61-.46-3-2-4.48-2.78-2.2-1.16-4.27-.89-6.78 0 .18 2.18.3 4.37.45 6.55.11 1.72.23 3.43.34 5.14 0 .16.1 2.34.1 2.34a4.45 4.45 0 0 0-1.94-.32 3.68 3.68 0 1 0 3.93 3.42Z" style="fill:#fff;opacity:.4;transform-origin:218.969px 139.655px 0" class="animable" id="el534f9k5prk2"/><path d="M197.35 64a5.23 5.23 0 0 1 1.11-1.86 11.3 11.3 0 0 1 2.26-1.81 19.61 19.61 0 0 0 3.16-2.33 4.79 4.79 0 0 0 1.64-3.41 5 5 0 0 1-1.79 1.41c-1.65.75-3.87.48-5.64.88-2.64.6-4.16 2.29-5.62 4.76 1.69 1.67 3.34 3.38 5 5.07l3.92 4c.13.12 1.74 1.85 1.74 1.85a4.85 4.85 0 0 0-1.83 1.11 4 4 0 1 0 5.66 0Z" style="fill:#06d6a0;transform-origin:200.3px 67.5434px 0" class="animable"/><path d="M197.35 64a5.23 5.23 0 0 1 1.11-1.86 11.3 11.3 0 0 1 2.26-1.81 19.61 19.61 0 0 0 3.16-2.33 4.79 4.79 0 0 0 1.64-3.41 5 5 0 0 1-1.79 1.41c-1.65.75-3.87.48-5.64.88-2.64.6-4.16 2.29-5.62 4.76 1.69 1.67 3.34 3.38 5 5.07l3.92 4c.13.12 1.74 1.85 1.74 1.85a4.85 4.85 0 0 0-1.83 1.11 4 4 0 1 0 5.66 0Z" style="fill:#fff;opacity:.2;transform-origin:200.3px 67.5434px 0" class="animable" id="elhbqt2hq74sh"/></g></g><defs><filter id="active" height="200%"><feMorphology in="SourceAlpha" result="DILATED" operator="dilate" radius="2"/><feFlood flood-color="#32DFEC" flood-opacity="1" result="PINK"/><feComposite in="PINK" in2="DILATED" operator="in" result="OUTLINE"/><feMerge><feMergeNode in="OUTLINE"/><feMergeNode in="SourceGraphic"/></feMerge></filter><filter id="hover" height="200%"><feMorphology in="SourceAlpha" result="DILATED" operator="dilate" radius="2"/><feFlood flood-color="red" flood-opacity=".5" result="PINK"/><feComposite in="PINK" in2="DILATED" operator="in" result="OUTLINE"/><feMerge><feMergeNode in="OUTLINE"/><feMergeNode in="SourceGraphic"/></feMerge><feColorMatrix values="0 0 0 0 0 0 1 0 0 0 0 0 0 0 0 0 0 0 1 0"/></filter></defs></svg>