<svg xmlns="http://www.w3.org/2000/svg" xmlns:xlink="http://www.w3.org/1999/xlink" width="512" height="203" viewBox="0 0 512 203">
  <defs>
    <linearGradient id="linear-gradient" x1="0.5" x2="1" y2="1.323" gradientUnits="objectBoundingBox">
      <stop offset="0" stop-color="#06d6a0"/>
      <stop offset="1" stop-color="#036b50"/>
    </linearGradient>
    <linearGradient id="linear-gradient-2" x1="0.5" x2="0.964" y2="1.229" gradientUnits="objectBoundingBox">
      <stop offset="0" stop-color="#1b9aaa"/>
      <stop offset="1" stop-color="#ef476f"/>
    </linearGradient>
    <linearGradient id="linear-gradient-3" x1="0.5" x2="0.941" y2="0.793" gradientUnits="objectBoundingBox">
      <stop offset="0" stop-color="#1b9aaa"/>
      <stop offset="1" stop-color="#39055c"/>
    </linearGradient>
    <clipPath id="clip-stereo-books-logo">
      <rect width="512" height="203"/>
    </clipPath>
  </defs>
  <g id="stereo-books-logo" clip-path="url(#clip-stereo-books-logo)">
    <g id="Group_3" data-name="Group 3" transform="translate(-2.703 -548.513)">
      <g id="Group_2" data-name="Group 2" transform="translate(10.518 565)">
        <path id="Icon_awesome-book" data-name="Icon awesome-book" d="M83.3,66.935V4.462A4.452,4.452,0,0,0,78.835,0H17.849A17.854,17.854,0,0,0,0,17.849v59.5A17.854,17.854,0,0,0,17.849,95.2H78.835A4.452,4.452,0,0,0,83.3,90.734V87.759a4.5,4.5,0,0,0-1.655-3.477c-.781-2.863-.781-11.026,0-13.889A4.431,4.431,0,0,0,83.3,66.935ZM23.8,24.915A1.119,1.119,0,0,1,24.915,23.8H64.332a1.119,1.119,0,0,1,1.116,1.116v3.719a1.119,1.119,0,0,1-1.116,1.116H24.915A1.119,1.119,0,0,1,23.8,28.633Zm0,11.9A1.119,1.119,0,0,1,24.915,35.7H64.332a1.119,1.119,0,0,1,1.116,1.116v3.719a1.119,1.119,0,0,1-1.116,1.116H24.915A1.119,1.119,0,0,1,23.8,40.533ZM70.914,83.3H17.849a5.95,5.95,0,0,1,0-11.9H70.914A66.938,66.938,0,0,0,70.914,83.3Z" transform="translate(65.532 73.23)" fill="url(#linear-gradient)"/>
        <g id="Group_1" data-name="Group 1" transform="translate(0 0)">
          <g id="Icon_ionic-ios-headset" data-name="Icon ionic-ios-headset">
            <path id="Path_1" data-name="Path 1" d="M54.736,8.7A41.377,41.377,0,0,0,24.16,22.294C16.026,31.05,11.672,38.179,11.672,50.811a6.523,6.523,0,0,0,6.316,6.7,6.523,6.523,0,0,0,6.316-6.7A27.2,27.2,0,0,1,33.4,30a31.875,31.875,0,0,1,21.388-7.9A31.639,31.639,0,0,1,76.172,30a27.269,27.269,0,0,1,9.091,20.814,6.327,6.327,0,1,0,12.632,0c0-12.632-4.4-19.761-12.488-28.518A41.562,41.562,0,0,0,54.736,8.7Z" transform="translate(52.445 12.253)" fill="#ef476f"/>
            <path id="Path_2" data-name="Path 2" d="M205.654,100.8A36.993,36.993,0,0,0,179.29,89.838h-3.828a1.92,1.92,0,0,1-1.914-1.914V69.838A63.681,63.681,0,0,0,154.7,24.525a63.71,63.71,0,0,0-90.529-.048A63.681,63.681,0,0,0,45.314,69.79V87.925A1.92,1.92,0,0,1,43.4,89.838H39.572A37.411,37.411,0,0,0,2.25,127.16v5.646a37.493,37.493,0,0,0,37.322,37.418h2.68a7.683,7.683,0,0,1,5.215,1.962,6.668,6.668,0,0,0,11.244-4.928V69.79a50.72,50.72,0,0,1,101.439,0v97.515a6.668,6.668,0,0,0,11.244,4.928,7.683,7.683,0,0,1,5.216-1.962h2.68a37.493,37.493,0,0,0,37.322-37.418V127.16A36.992,36.992,0,0,0,205.654,100.8Z" transform="translate(-2.25 -5.625)" fill="url(#linear-gradient-2)"/>
          </g>
        </g>
      </g>
      <path id="Path_3" data-name="Path 3" d="M16.36-19.212l-.131-.262a1.942,1.942,0,0,1-.131-.917c0-3.274,4.06-11.132,13.489-15.454,5.631-1.441,8.12-5.108,8.12-8.513,0-3.929-3.274-7.6-8.775-7.6-5.369,0-12.7,3.274-21.216,13.1C2.74-33.094-.01-26.546-.01-20.521c0,9.3,6.679,17.025,22.395,17.811C19.9,2.921,18.849,7.767,18.849,11.565c0,8.382,4.846,12.572,10.608,12.572,9.036,0,19.383-10.215,19.383-19.121,0-5.5-3.405-10.739-10.87-13.882-4.846-1.964-7.2-1.572-7.2-2.881,0-1.179,1.572-3.536,4.846-9.56A266.8,266.8,0,0,1,52.9-49.2a136.957,136.957,0,0,0-2.1,24.359c0,21.609,5.108,40.73,16.108,40.73a14.566,14.566,0,0,0,8.251-3.012C84.33,6.457,88-13.711,96.641-26.022a1.742,1.742,0,0,0,.393-1.048,2.134,2.134,0,0,0-2.1-1.964,1.81,1.81,0,0,0-1.441.786C86.687-18.426,78.306,5.933,72.281,7.5a7.841,7.841,0,0,1-1.572.262c-4.453,0-6.024-5.369-6.024-13.358,0-21.347,11.525-61.16,13.1-66.529,13.62-3.8,23.7-5.239,31.038-5.239,27.371,0,19.252,20.037,28.419,20.037a7.024,7.024,0,0,0,7.334-7.072v-.917c-1.441-12.965-12.834-17.025-26.847-17.025-13.1,0-28.55,3.405-40.337,6.548a8.03,8.03,0,0,0-7.727-5.5,6.544,6.544,0,0,0-4.584,1.833c-9.036,9.822,1.179,7.2-18.2,11.918-8.251,2.1-17.549,3.929-26.455,3.929-10.87,0-20.954-2.881-27.24-11.525-2.75-4.322-5.5-6.024-7.6-6.024-2.488,0-4.06,2.226-4.06,5.239,0,6.679,7.6,17.287,31.169,17.287a114.664,114.664,0,0,0,22.919-2.619c14.144-2.881,19.644-5.108,21.347-5.108.524,0,.655.131.655.524,0,.786-1.441,3.143-2.619,7.465-27.109,35.491-25.538,46.1-29.6,46.1-1.179,0-2.881-1.048-5.893-2.488C19.372-14.89,16.622-18.3,16.36-19.212Zm.786,1.441a1.884,1.884,0,0,1-.262-.393A1.621,1.621,0,0,1,17.146-17.771ZM41.9,6.457c0,5.893-7.858,12.311-13.358,12.311-3.143,0-5.5-1.964-5.5-6.941,0-3.405,1.048-7.989,3.536-14.275C31.945-2.187,41.9-.484,41.9,6.457Zm94.686-31.431c-.786,3.143-11.394,22.657-21.609,22.657a9.075,9.075,0,0,1-2.619-.393c-3.929-1.441-8.513-7.465-8.513-15.454a12.706,12.706,0,0,1,.131-2.226,19.341,19.341,0,0,0,2.75.131c8.12,0,15.192-3.667,20.3-11.263a15.93,15.93,0,0,0,2.881-9.036c0-7.989-7.072-14.144-14.93-14.144a14.832,14.832,0,0,0-4.715.786C98.605-50.25,91.009-37.809,91.009-25.367A27.883,27.883,0,0,0,98.474-6.115c5.369,5.762,10.346,7.989,14.93,7.989,14.144,0,23.442-22.264,26.455-25.669a1.415,1.415,0,0,0,.393-.917,2.1,2.1,0,0,0-1.964-1.833C137.5-26.546,136.846-26.153,136.584-24.974ZM116.416-40.035a.481.481,0,0,0,.393-.131,9.013,9.013,0,0,1,1.7-.262c2.357,0,3.667,1.964,3.667,4.584,0,4.453-4.06,10.608-14.144,10.608a25.235,25.235,0,0,1-3.143-.131C106.332-29.82,111.309-38.987,116.416-40.035ZM113.8-38.856h.131a1.621,1.621,0,0,0,.393-.262c-.131,0-.262.131-.393.262Zm84.471,11.525C189.1,6.326,182.814,17.851,179.016,17.851c-3.536,0-5.108-9.56-5.108-21.085,0-12.965,2.1-28.288,5.369-34.181,1.572-2.75,2.881-5.631,2.881-8.12,0-2.357-1.048-4.322-4.06-5.893a9.259,9.259,0,0,0-3.8-1.048c-2.881,0-5.108,2.1-7.465,5.369-5.762-.262-11.263-2.75-15.978-6.024-2.619-1.833-2.881-1.833-2.881-3.405v-3.8c-.524-12.442-6.155-16.5-11-16.5-5.762,0-8.905,4.846-8.905,10.346,0,6.679,4.453,14.93,13.751,19.775a2.144,2.144,0,0,1,.786,1.964c0,4.846-5.239,16.37-7.072,19.775a2.428,2.428,0,0,0-.262.917,1.83,1.83,0,0,0,1.7,1.7,1.594,1.594,0,0,0,1.31-.786,58.281,58.281,0,0,0,8.644-21.347c7.6,2.881,11.918,3.143,14.144,3.143h1.31c.655,0,.917,0,.917.393,0,1.048-2.619,4.977-4.322,18.728a69.71,69.71,0,0,0-.655,10.346c0,21.478,9.167,37.194,18.2,37.194a10.179,10.179,0,0,0,2.1-.262c13.1-3.536,9.56-16.632,22.919-51.207a1.424,1.424,0,0,0,.131-.655,1.76,1.76,0,0,0-1.833-1.7A1.646,1.646,0,0,0,198.268-27.331Zm-56.445-34.05c-2.357-3.012-3.143-5.5-3.143-6.941,0-.917.393-1.572.917-1.572,1.441,0,3.8,3.143,4.191,10.739A14.972,14.972,0,0,1,141.823-61.382Zm101.1,36.408c-.786,3.143-11.394,22.657-21.609,22.657A9.075,9.075,0,0,1,218.7-2.71c-3.929-1.441-8.513-7.465-8.513-15.454a12.7,12.7,0,0,1,.131-2.226,19.341,19.341,0,0,0,2.75.131c8.12,0,15.192-3.667,20.3-11.263a15.93,15.93,0,0,0,2.881-9.036c0-7.989-7.072-14.144-14.93-14.144a14.832,14.832,0,0,0-4.715.786c-11.656,3.667-19.252,16.108-19.252,28.55a27.883,27.883,0,0,0,7.465,19.252c5.369,5.762,10.346,7.989,14.93,7.989,14.144,0,23.442-22.264,26.455-25.669a1.415,1.415,0,0,0,.393-.917,2.1,2.1,0,0,0-1.964-1.833C243.843-26.546,243.188-26.153,242.926-24.974ZM222.758-40.035a.481.481,0,0,0,.393-.131,9.013,9.013,0,0,1,1.7-.262c2.357,0,3.667,1.964,3.667,4.584,0,4.453-4.06,10.608-14.144,10.608a25.235,25.235,0,0,1-3.143-.131C212.674-29.82,217.651-38.987,222.758-40.035Zm-2.619,1.179h.131a1.621,1.621,0,0,0,.393-.262c-.131,0-.262.131-.393.262Zm73.6,11.132a32.851,32.851,0,0,1-12.572,8.644c.131-1.441.262-2.881.262-4.453,0-17.418-9.036-39.027-24.883-39.158-10.215,0-17.68,10.084-17.68,21.609a28.5,28.5,0,0,0,3.667,13.751,34.078,34.078,0,0,0-2.488,12.572c0,14.668,10.084,26.193,20.43,26.193,8.12,0,16.37-7.2,19.906-25.8A37.872,37.872,0,0,0,296.49-25.76a1.415,1.415,0,0,0,.393-.917,1.853,1.853,0,0,0-1.833-1.7A1.819,1.819,0,0,0,293.74-27.724ZM257.07-58.37c9.953,0,20.823,14.668,20.823,33.134a47.165,47.165,0,0,1-.524,7.334,27.175,27.175,0,0,1-7.2.917A26.217,26.217,0,0,1,256.94-20.39c1.7-4.322,4.453-8.251,5.108-8.513a6.572,6.572,0,0,0,4.715-6.417c0-4.06-3.405-8.382-8.12-8.382-3.8,0-8.382,2.619-12.965,10.084a23.658,23.658,0,0,1-1.441-8.12C244.236-49.071,248.82-58.37,257.07-58.37Zm17.811,49.9C271.607.3,266.631,4.755,262.571,4.755s-7.2-4.322-7.2-13.1a45.739,45.739,0,0,1,.524-6.941,29.964,29.964,0,0,0,12.7,3.143c3.536,0,5.893-.917,6.81-.917.524,0,.655.131.655.655A15.208,15.208,0,0,1,274.882-8.473Z" transform="translate(209.603 650.58)" fill="url(#linear-gradient-3)"/>
      <path id="Path_4" data-name="Path 4" d="M5.84-.747H19.333a14.828,14.828,0,0,0,6.526-1.587q6.173-3.086,6.173-10.582,0-9.553-9.406-13.639,3.351-1.646,3.38-5.85a3.8,3.8,0,0,0-2.587-3.733,7.792,7.792,0,0,0-3.028-.588H5.84Zm21.605-25.9q7.76,4.409,7.76,13.727,0,9.406-7.878,13.228a18.207,18.207,0,0,1-8,1.969H2.783V-39.9H20.391a10.191,10.191,0,0,1,5.526,1.529,6.536,6.536,0,0,1,3.292,5.967A8.444,8.444,0,0,1,27.446-26.644ZM65.829-.277A18,18,0,0,0,79-5.715a18,18,0,0,0,5.438-13.169A18,18,0,0,0,79-32.053a18,18,0,0,0-13.169-5.438,18,18,0,0,0-13.169,5.438,18,18,0,0,0-5.438,13.169A18,18,0,0,0,52.661-5.715,18,18,0,0,0,65.829-.277Zm.029-40.271A20.871,20.871,0,0,1,81.174-34.2a20.768,20.768,0,0,1,6.32,15.315A20.871,20.871,0,0,1,81.144-3.569,20.871,20.871,0,0,1,65.829,2.78,20.871,20.871,0,0,1,50.515-3.569a20.871,20.871,0,0,1-6.349-15.315A20.974,20.974,0,0,1,50.544-34.2,20.871,20.871,0,0,1,65.859-40.548ZM119.028-.277A18,18,0,0,0,132.2-5.715a18,18,0,0,0,5.438-13.169A18,18,0,0,0,132.2-32.053a18,18,0,0,0-13.169-5.438,18,18,0,0,0-13.169,5.438,18,18,0,0,0-5.438,13.169,18,18,0,0,0,5.438,13.169A18,18,0,0,0,119.028-.277Zm.029-40.271A20.871,20.871,0,0,1,134.373-34.2a20.768,20.768,0,0,1,6.32,15.315,20.871,20.871,0,0,1-6.349,15.315A20.871,20.871,0,0,1,119.028,2.78a20.871,20.871,0,0,1-15.315-6.349,20.871,20.871,0,0,1-6.349-15.315A20.974,20.974,0,0,1,103.743-34.2,20.871,20.871,0,0,1,119.058-40.548ZM154.679,2.28h-3.086V-39.9h3.086Zm9.406-15.285,27.661,27.661H187.4L159.734-13.005,186.778-39.96h4.38Zm52.17-12.963a14.668,14.668,0,0,1,7,5.438,14.335,14.335,0,0,1,2.763,8.554,14.181,14.181,0,0,1-4.468,10.553,14.729,14.729,0,0,1-10.729,4.409,14.65,14.65,0,0,1-10.641-4.321,14.345,14.345,0,0,1-4.556-10.406h3.028a11.428,11.428,0,0,0,3.674,8.26,11.8,11.8,0,0,0,8.5,3.439,11.648,11.648,0,0,0,8.554-3.527,11.324,11.324,0,0,0,3.586-8.407,11.436,11.436,0,0,0-3.557-8.466,12.023,12.023,0,0,0-7.951-3.748q-4.365-.22-6.1-1.778-.353-.294-.47-.412a7.865,7.865,0,0,1-2.44-5.879,8,8,0,0,1,2.469-5.908,7.951,7.951,0,0,1,5.879-2.44,8.243,8.243,0,0,1,5.967,2.44,8.047,8.047,0,0,1,2.44,5.908h-3.028a5.079,5.079,0,0,0-1.587-3.763,5.224,5.224,0,0,0-3.792-1.558,5.03,5.03,0,0,0-3.733,1.558,5.127,5.127,0,0,0-1.558,3.763,5.059,5.059,0,0,0,1.558,3.7A6.157,6.157,0,0,0,211.2-27.1,14.788,14.788,0,0,1,216.255-25.968Z" transform="translate(241.425 720.087)" fill="#ef476f" stroke="#ef476f" stroke-width="1"/>
    </g>
  </g>
</svg>
