<svg xmlns="http://www.w3.org/2000/svg" xmlns:xlink="http://www.w3.org/1999/xlink" width="512" height="512" viewBox="0 0 512 512">
  <defs>
    <clipPath id="clip-stereo-books-icon">
      <rect width="512" height="512"/>
    </clipPath>
  </defs>
  <g id="stereo-books-icon" clip-path="url(#clip-stereo-books-icon)">
    <g id="Group_2" data-name="Group 2" transform="translate(-41.926 -16.559)">
      <path id="Icon_awesome-book" data-name="Icon awesome-book" d="M193.438,155.441V10.363A10.338,10.338,0,0,0,183.076,0H41.451A41.462,41.462,0,0,0,0,41.451v138.17a41.462,41.462,0,0,0,41.451,41.451H183.076a10.338,10.338,0,0,0,10.363-10.363V203.8a10.443,10.443,0,0,0-3.843-8.074c-1.813-6.649-1.813-25.6,0-32.254A10.29,10.29,0,0,0,193.438,155.441ZM55.268,57.859a2.6,2.6,0,0,1,2.591-2.591H149.4a2.6,2.6,0,0,1,2.591,2.591v8.636a2.6,2.6,0,0,1-2.591,2.591H57.859a2.6,2.6,0,0,1-2.591-2.591Zm0,27.634A2.6,2.6,0,0,1,57.859,82.9H149.4a2.6,2.6,0,0,1,2.591,2.591v8.636a2.6,2.6,0,0,1-2.591,2.591H57.859a2.6,2.6,0,0,1-2.591-2.591ZM164.682,193.438H41.451a13.817,13.817,0,0,1,0-27.634H164.682A155.448,155.448,0,0,0,164.682,193.438Z" transform="translate(201.11 246.619)" fill="#06d6a0"/>
      <g id="Group_1" data-name="Group 1" transform="translate(48.926 76.559)">
        <g id="Icon_ionic-ios-headset" data-name="Icon ionic-ios-headset">
          <path id="Path_1" data-name="Path 1" d="M111.677,8.7c-27,0-52.114,11.223-71,31.557s-29,36.891-29,66.226c0,8.556,6.556,15.556,14.667,15.556s14.667-7,14.667-15.556c0-19.223,7.334-36,21.112-48.336C75.231,46.373,92.9,39.818,111.789,39.818s36.558,6.445,49.669,18.334C175.237,70.6,182.57,87.265,182.57,106.488c0,8.556,6.556,15.556,14.667,15.556s14.668-7,14.668-15.556c0-29.335-10.223-45.891-29-66.226C163.792,19.816,138.679,8.7,111.677,8.7Z" transform="translate(137.225 39.965)" fill="#ef476f"/>
          <path id="Path_2" data-name="Path 2" d="M474.61,226.637a85.907,85.907,0,0,0-61.226-25.446h-8.889a4.458,4.458,0,0,1-4.445-4.445v-42A147.884,147.884,0,0,0,356.27,49.516a147.952,147.952,0,0,0-210.234-.111,147.884,147.884,0,0,0-43.78,105.228v42.113a4.458,4.458,0,0,1-4.445,4.445H88.922A86.879,86.879,0,0,0,2.25,287.863v13.112a87.069,87.069,0,0,0,86.672,86.894h6.223a17.843,17.843,0,0,1,12.112,4.556,15.486,15.486,0,0,0,26.113-11.445V154.633a117.785,117.785,0,0,1,235.569,0V381.09a15.486,15.486,0,0,0,26.113,11.445,17.843,17.843,0,0,1,12.112-4.556h6.223a87.069,87.069,0,0,0,86.671-86.894V287.863A85.907,85.907,0,0,0,474.61,226.637Z" transform="translate(-2.25 -5.625)" fill="#1b9aaa"/>
        </g>
      </g>
    </g>
  </g>
</svg>
