<?xml version="1.0" standalone="no"?><svg xmlns="http://www.w3.org/2000/svg" viewBox="0 0 1440 320"><path fill="#06d6a0" fill-opacity="1" d="M0,96L26.7,122.7C53.3,149,107,203,160,197.3C213.3,192,267,128,320,133.3C373.3,139,427,213,480,245.3C533.3,277,587,267,640,229.3C693.3,192,747,128,800,138.7C853.3,149,907,235,960,245.3C1013.3,256,1067,192,1120,181.3C1173.3,171,1227,213,1280,202.7C1333.3,192,1387,128,1413,96L1440,64L1440,0L1413.3,0C1386.7,0,1333,0,1280,0C1226.7,0,1173,0,1120,0C1066.7,0,1013,0,960,0C906.7,0,853,0,800,0C746.7,0,693,0,640,0C586.7,0,533,0,480,0C426.7,0,373,0,320,0C266.7,0,213,0,160,0C106.7,0,53,0,27,0L0,0Z"></path></svg>